<?xml version="1.0" standalone="no"?>
<!DOCTYPE svg PUBLIC "-//W3C//DTD SVG 20010904//EN"
 "http://www.w3.org/TR/2001/REC-SVG-20010904/DTD/svg10.dtd">
<svg version="1.0" xmlns="http://www.w3.org/2000/svg"
 width="736.000000pt" height="736.000000pt" viewBox="0 0 736.000000 736.000000"
 preserveAspectRatio="xMidYMid meet">
<metadata>
Created by potrace 1.11, written by Peter Selinger 2001-2013
</metadata>
<g transform="translate(0.000000,736.000000) scale(0.100000,-0.100000)"
fill="#000000" stroke="none">
<path d="M3075 7332 l50 -27 -145 -6 c-232 -10 -378 -37 -479 -89 -86 -43
-134 -82 -160 -131 l-24 -44 49 52 c61 64 130 97 248 118 91 15 266 19 346 7
39 -6 28 -9 -83 -20 -165 -17 -261 -41 -373 -97 -85 -41 -151 -96 -181 -149
-6 -11 -38 -23 -96 -36 -161 -35 -275 -111 -341 -225 -19 -33 -29 -40 -96 -59
-147 -43 -258 -118 -323 -216 -19 -29 -26 -36 -22 -20 10 35 44 88 85 135 l35
39 -33 -23 c-85 -60 -142 -171 -147 -285 -2 -51 -6 -62 -26 -75 -59 -38 -177
-134 -205 -168 -82 -100 -128 -201 -144 -315 -6 -40 -13 -82 -15 -93 -3 -15
-27 -30 -85 -54 -101 -41 -215 -117 -272 -180 -42 -47 -105 -158 -94 -168 2
-3 12 10 22 29 52 102 145 188 276 254 86 43 96 43 31 -1 -201 -135 -338 -353
-373 -592 -23 -162 -43 -252 -61 -282 -12 -21 -42 -42 -93 -66 -73 -35 -126
-84 -126 -116 0 -8 9 -2 21 13 21 29 78 68 99 68 7 0 0 -10 -16 -22 -68 -53
-89 -106 -99 -243 -8 -105 -18 -146 -45 -170 -11 -10 -20 -22 -20 -27 0 -14
52 -30 102 -30 42 0 46 -2 38 -18 -14 -25 -65 -44 -102 -36 -26 5 -30 4 -20
-6 8 -8 37 -13 70 -13 l57 1 -37 -76 c-24 -47 -40 -96 -43 -130 l-6 -55 20 37
c29 52 45 59 38 17 -26 -149 -30 -220 -19 -293 19 -125 75 -209 182 -271 57
-33 13 -22 -53 13 -58 31 -101 83 -128 154 -16 42 -19 45 -14 18 15 -92 104
-195 225 -259 l65 -35 -34 -9 c-48 -12 -143 6 -198 38 -24 15 -58 45 -75 68
l-31 42 6 -38 c11 -75 67 -175 128 -232 95 -87 208 -116 366 -92 l53 8 6 -40
c9 -56 37 -97 88 -129 24 -15 52 -32 62 -39 17 -10 16 -13 -18 -27 -53 -23
-106 -20 -156 9 -38 22 -41 22 -32 4 14 -25 77 -66 116 -74 29 -6 32 -9 37
-59 9 -88 62 -173 152 -240 36 -28 4 -17 -39 13 -47 33 -86 87 -116 159 -25
61 -26 28 -1 -38 41 -107 146 -206 262 -247 41 -15 49 -22 49 -43 0 -15 -6
-35 -14 -45 -12 -17 -17 -18 -41 -7 l-28 13 6 -38 c4 -21 27 -81 53 -133 62
-124 169 -235 289 -297 l80 -42 -43 -1 c-57 0 -127 34 -185 92 -40 40 -45 43
-30 17 55 -94 171 -159 300 -168 l84 -6 43 -100 c120 -279 372 -605 651 -845
98 -84 451 -346 526 -391 78 -46 219 -97 329 -119 136 -28 464 -39 602 -21
261 35 395 98 640 302 228 190 431 403 629 661 235 305 386 488 403 488 6 0
38 -14 70 -30 48 -24 71 -30 125 -30 110 0 191 52 245 158 14 28 19 31 36 22
23 -12 20 -17 45 73 8 31 43 114 76 185 79 167 141 377 165 562 l7 55 14 -33
c18 -45 40 -151 48 -238 15 -154 -47 -332 -158 -451 l-62 -67 44 25 c58 32
138 121 168 186 61 133 69 361 20 558 -14 55 -28 107 -32 116 -5 14 1 14 67 1
92 -19 195 -5 283 37 97 46 113 64 37 41 -100 -31 -114 -21 -19 14 100 37 189
168 205 301 8 66 9 68 20 42 48 -116 30 -302 -40 -400 -11 -16 -18 -31 -15
-34 10 -9 66 77 88 136 34 89 36 230 6 384 -1 8 11 11 41 9 62 -5 149 16 215
51 64 33 69 46 10 26 -21 -7 -78 -13 -128 -13 -74 0 -99 4 -138 23 -47 23
-137 103 -137 122 0 5 21 9 48 9 26 1 61 7 77 15 29 13 30 13 5 14 -43 2 -124
46 -164 91 -22 24 -35 45 -29 47 6 2 36 -5 67 -16 31 -11 56 -15 56 -10 0 16
-20 52 -43 77 -11 12 -17 22 -14 22 17 0 87 -52 111 -82 l27 -33 -7 30 c-17
76 -74 150 -184 238 l-35 28 50 -25 c73 -35 145 -96 195 -165 24 -33 46 -59
48 -57 5 5 -43 96 -67 126 l-19 24 46 16 c32 10 54 26 69 49 32 48 29 62 -6
24 -36 -39 -71 -49 -122 -34 -45 14 -150 92 -186 138 l-24 31 61 -19 c40 -12
88 -19 138 -18 68 1 72 2 39 10 -20 5 -56 19 -80 31 l-42 23 70 6 c74 6 135
31 172 71 l22 23 -122 0 c-117 0 -125 1 -187 32 l-65 31 80 2 c106 2 140 15
61 23 -66 7 -150 44 -187 83 l-24 26 26 -7 c32 -8 81 15 103 47 25 35 19 40
-21 18 -51 -27 -69 -25 -104 9 -27 27 -29 35 -29 103 0 40 7 114 15 163 33
199 6 335 -86 440 -37 42 -33 51 14 36 42 -14 69 -43 97 -101 l21 -45 -6 40
c-8 48 -46 116 -80 143 l-24 19 39 18 c68 30 66 40 -8 42 -77 2 -161 30 -239
79 -29 19 -53 36 -53 38 0 2 17 0 37 -6 53 -14 130 -5 188 22 l50 24 -35 3
c-86 8 -88 11 -32 48 63 43 74 58 35 49 -15 -4 -38 -11 -51 -15 -34 -13 -41
-10 -13 5 23 12 20 14 -44 21 -82 8 -164 36 -224 75 -97 62 -202 191 -257 317
-29 64 -29 63 -6 63 25 0 59 -26 94 -74 l31 -41 -7 44 c-9 61 -49 140 -98 196
l-43 48 35 -6 c42 -9 83 -47 108 -101 42 -95 43 -95 37 -46 -15 122 -70 204
-177 260 -123 64 -264 165 -348 250 -88 87 -165 190 -158 210 2 7 24 0 61 -18
31 -16 57 -25 57 -21 0 5 -34 36 -75 71 -73 60 -89 81 -45 58 12 -6 23 -10 26
-8 2 2 -29 23 -69 46 -78 45 -67 57 21 24 129 -49 264 -174 394 -362 l17 -25
-8 31 c-55 202 -263 397 -519 485 -29 10 -74 36 -100 57 -72 60 -131 90 -223
113 -49 13 -140 49 -220 89 -248 122 -458 177 -724 190 l-160 8 195 -3 c130
-3 218 -9 264 -20 38 -8 71 -13 73 -11 6 6 -117 32 -216 47 -110 15 -337 7
-515 -21 l-139 -21 -93 30 c-105 35 -244 61 -313 61 l-46 -1 50 -27z m1000
-92 c130 -11 234 -33 370 -77 104 -34 333 -142 385 -183 14 -10 -31 9 -100 43
-208 104 -453 174 -640 182 -47 2 -71 2 -55 -1 17 -2 64 -9 105 -15 108 -15
287 -63 393 -105 166 -65 369 -186 477 -284 36 -32 28 -29 -36 17 -226 165
-496 280 -764 328 -177 31 -491 31 -650 -2 -20 -4 -22 -2 -10 6 11 8 2 11 -40
12 l-55 0 45 15 c193 62 373 83 575 64z m129 -130 c412 -80 750 -288 1095
-675 34 -38 59 -63 55 -55 -4 8 24 -19 61 -60 124 -136 261 -266 334 -314 40
-27 70 -51 67 -54 -3 -3 -39 11 -80 32 -50 24 -102 62 -155 112 -45 42 -81 73
-81 68 0 -13 70 -136 123 -214 174 -261 377 -464 549 -551 32 -16 58 -31 58
-34 0 -8 -102 35 -160 67 -174 98 -351 281 -479 498 -72 121 -71 119 -59 75
15 -59 90 -214 139 -286 54 -81 176 -203 254 -256 76 -51 172 -100 255 -129
44 -15 57 -23 39 -23 -32 -1 -147 38 -219 74 -94 48 -172 106 -266 199 -144
144 -245 291 -338 493 -51 111 -58 111 -21 2 90 -265 271 -511 476 -649 123
-82 225 -119 434 -158 l50 -10 -66 -1 c-86 -1 -218 22 -311 55 -97 34 -181 82
-275 155 l-78 60 64 -62 c114 -110 246 -180 412 -218 l84 -19 -60 -1 c-119 -1
-275 54 -398 143 -104 74 -249 233 -314 344 -43 73 -38 37 7 -45 151 -281 408
-451 740 -489 l65 -7 -40 -9 c-22 -6 -92 -7 -155 -5 -129 6 -203 26 -310 84
-89 49 -248 211 -320 328 -51 83 -160 332 -159 365 0 8 20 -23 45 -70 53 -101
49 -75 -12 71 -89 213 -206 383 -388 564 -131 130 -248 216 -410 302 -56 29
-97 53 -93 53 18 0 197 -74 257 -107 196 -106 383 -288 519 -503 52 -83 53
-62 1 42 -57 113 -104 182 -184 266 -94 99 -179 161 -317 231 -186 95 -323
133 -639 179 l-65 9 107 2 c125 1 303 -26 416 -65 88 -30 246 -107 330 -160
52 -33 55 -34 32 -9 -71 77 -254 179 -397 220 -152 44 -263 59 -460 59 -123 1
-175 4 -160 10 12 6 110 10 217 10 205 1 309 -14 454 -64 31 -10 56 -17 56
-14 0 9 -117 56 -197 79 -139 41 -281 58 -483 58 -102 0 -207 -2 -235 -6 l-50
-6 43 14 c119 39 409 41 596 5z m-1025 -5 c57 -8 142 -24 190 -35 106 -25 374
-110 367 -117 -2 -3 -28 3 -56 12 -28 9 -53 15 -56 12 -3 -2 121 -47 276 -98
154 -52 277 -95 272 -97 -4 -1 -100 24 -212 57 -113 33 -206 58 -208 57 -4 -5
183 -75 338 -127 163 -54 168 -62 17 -23 -173 44 -332 98 -519 178 -62 27 -43
10 50 -42 147 -84 348 -154 587 -206 146 -32 109 -33 -52 -1 -195 38 -350 85
-518 159 -33 14 -51 19 -40 10 34 -27 196 -101 283 -130 45 -15 80 -29 78 -31
-2 -2 -51 7 -107 22 -100 25 -211 67 -494 188 -159 68 -217 83 -125 33 36 -20
79 -48 95 -62 36 -30 34 -30 -75 23 -94 45 -174 74 -266 97 -103 26 -104 18
-4 -22 89 -36 182 -81 169 -82 -3 0 -43 14 -88 30 -142 52 -269 81 -391 88
-113 8 -114 8 -75 21 23 8 108 15 205 18 202 6 300 -11 535 -91 11 -4 3 2 -18
14 -20 11 -83 36 -140 55 -270 90 -501 85 -672 -16 l-50 -30 35 31 c39 34 35
37 -17 15 -57 -24 -50 -10 9 18 68 32 138 55 213 72 82 18 336 18 464 0z
m-534 -194 c254 -62 476 -225 577 -426 36 -70 27 -75 -17 -10 -25 39 -67 92
-93 119 -54 56 -188 158 -246 188 l-39 20 59 -68 c93 -107 95 -113 14 -43 -94
81 -181 141 -285 196 -90 48 -85 51 30 24z m-131 -55 c39 -19 94 -56 121 -81
56 -52 52 -52 -23 -1 -74 49 -155 77 -244 83 -97 7 -181 -9 -278 -53 -83 -38
-64 -15 31 36 85 45 152 61 243 56 65 -4 91 -10 150 -40z m408 -3 c139 -54
314 -212 401 -363 27 -47 60 -120 54 -120 -2 0 -28 39 -57 88 -74 121 -243
288 -364 360 -96 56 -102 62 -34 35z m1443 -56 c299 -136 518 -331 655 -582
40 -72 32 -66 -51 45 -154 205 -378 391 -649 540 -108 58 -88 57 45 -3z
m-1913 -28 c109 -24 221 -91 296 -180 l37 -44 -40 33 c-132 109 -236 153 -380
160 -81 3 -118 0 -185 -17 -79 -19 -298 -117 -287 -128 3 -2 23 5 45 16 79 40
212 73 322 78 122 6 192 -8 292 -58 67 -34 180 -136 212 -191 15 -24 3 -16
-45 33 -253 258 -597 249 -1031 -27 l-73 -46 35 37 c128 136 412 305 563 335
63 12 179 11 239 -1z m2633 -29 c10 -11 16 -20 13 -20 -3 0 -13 9 -23 20 -10
11 -16 20 -13 20 3 0 13 -9 23 -20z m-2225 -117 c41 -49 131 -146 200 -217
131 -136 118 -145 -23 -15 -99 90 -194 201 -231 268 -15 28 -26 51 -23 51 2 0
37 -39 77 -87z m1055 27 c4 -6 -13 -10 -44 -10 -83 0 -273 -28 -362 -54 -54
-16 -77 -19 -65 -10 28 20 120 53 191 69 72 16 271 19 280 5z m-1511 -56 c84
-21 192 -76 246 -125 l45 -40 -48 31 c-235 154 -523 162 -808 22 -54 -27 -99
-47 -99 -46 0 2 33 22 73 46 77 45 184 89 270 113 72 19 244 19 321 -1z m1738
-3 c279 -48 499 -155 672 -326 77 -76 163 -190 197 -260 16 -34 17 -36 2 -15
-168 234 -347 389 -564 488 -132 61 -145 59 -24 -5 194 -102 323 -205 450
-358 131 -158 236 -409 234 -559 0 -48 -2 -45 -28 59 -51 197 -130 367 -216
460 l-37 40 22 -40 c13 -22 38 -67 56 -101 55 -99 86 -199 90 -289 l4 -80 -19
85 c-34 153 -96 290 -182 402 -52 66 -151 169 -204 211 -35 28 -32 23 19 -33
127 -142 222 -303 257 -438 22 -86 18 -106 -8 -41 -104 263 -333 504 -589 620
-38 17 -114 46 -169 65 -87 30 -93 34 -50 29 115 -14 241 -61 353 -130 23 -14
42 -22 42 -17 0 18 -73 74 -124 97 -100 44 -326 85 -469 85 -89 0 -78 15 16
24 89 8 233 -7 316 -33 68 -21 71 -9 6 20 -37 16 -169 41 -275 52 -19 2 -3 5
37 5 39 1 122 -7 185 -17z m-1756 -71 c79 -20 181 -64 219 -93 11 -9 -20 -1
-70 18 -122 45 -219 59 -363 52 -173 -8 -201 -22 -45 -23 151 -1 221 -16 343
-76 101 -49 188 -131 238 -225 43 -82 40 -88 -8 -15 -113 169 -295 272 -505
286 l-90 5 85 -18 c264 -58 440 -190 541 -404 35 -76 75 -230 83 -318 l6 -64
-28 102 c-55 193 -104 294 -204 419 -132 166 -294 245 -506 245 -118 0 -192
-12 -305 -48 -43 -13 -81 -23 -83 -20 -7 6 106 82 171 114 120 60 206 80 346
82 67 1 120 -5 175 -19z m-216 -175 c112 -29 227 -91 296 -161 113 -113 154
-237 153 -454 -1 -177 -12 -198 -27 -55 -22 206 -92 374 -205 492 -103 108
-208 159 -385 188 l-87 15 95 -5 c52 -2 124 -11 160 -20z m1003 -116 c101 -42
96 -53 -7 -15 -75 27 -167 80 -199 115 -15 16 -1 10 46 -19 37 -24 109 -60
160 -81z m990 63 c286 -171 533 -413 692 -678 28 -46 35 -53 35 -33 0 16 15
-7 44 -66 41 -87 137 -225 190 -274 32 -30 34 -20 5 21 -12 16 32 -23 97 -89
66 -65 142 -133 169 -152 l50 -33 -42 36 c-23 20 -63 65 -88 99 -46 60 -110
175 -103 183 2 2 23 -25 45 -59 51 -77 139 -168 229 -237 117 -88 388 -208
537 -235 21 -4 36 -9 33 -12 -9 -10 -180 29 -278 63 -57 20 -146 58 -198 85
-52 27 -84 41 -70 30 49 -40 258 -141 361 -175 112 -37 261 -66 343 -66 42 -1
48 -3 32 -12 -31 -17 -267 -3 -361 22 -161 44 -410 172 -577 298 -39 29 -73
51 -76 48 -9 -10 109 -115 196 -174 199 -136 391 -205 642 -231 l85 -8 -80 -2
c-165 -2 -374 50 -528 132 -232 123 -517 400 -659 639 -64 107 -62 91 8 -60
96 -208 267 -421 434 -543 69 -50 64 -41 -22 40 -48 45 -102 101 -120 124 -24
31 -10 21 51 -36 256 -239 492 -332 822 -325 172 3 169 -7 -10 -37 -132 -22
-339 -16 -451 14 -220 57 -411 171 -588 349 -48 48 -76 72 -63 53 30 -42 148
-161 222 -224 226 -191 542 -278 847 -233 62 9 120 19 130 22 9 3 0 -4 -20
-15 -54 -30 -148 -50 -268 -57 -188 -11 -380 36 -630 152 -104 49 -112 51 -80
23 93 -80 375 -172 603 -196 106 -11 23 -22 -95 -13 -452 36 -813 329 -1000
810 -46 116 -40 117 20 3 33 -62 77 -136 98 -165 53 -73 116 -149 121 -144 2
2 -18 46 -46 97 -76 143 -253 569 -237 569 2 0 40 -57 84 -127 98 -157 186
-277 177 -243 -11 40 -139 280 -207 391 -110 176 -283 375 -443 508 -54 45
-18 31 69 -27 86 -57 256 -219 373 -356 48 -56 95 -110 106 -121 19 -20 19
-20 1 10 -45 74 -166 227 -248 313 -113 119 -240 225 -376 315 -116 78 -109
82 13 9z m1609 -201 c27 -19 46 -36 43 -39 -11 -12 -166 91 -237 157 -123 115
-112 122 24 14 68 -54 144 -114 170 -132z m-3779 189 c175 -44 329 -164 400
-310 57 -117 71 -183 70 -350 0 -194 -18 -232 -25 -54 -6 149 -31 274 -55 274
-12 0 -14 -6 -8 -27 35 -141 49 -416 25 -503 -9 -32 -9 -30 -6 20 6 92 -13
299 -39 412 -41 182 -96 295 -197 398 -63 65 -122 103 -212 136 -76 28 -56 30
47 4z m837 -115 c65 -88 233 -258 325 -330 89 -69 130 -96 255 -168 47 -27 74
-45 60 -41 -54 15 -214 95 -296 149 -47 31 -88 54 -91 52 -6 -6 105 -106 235
-210 61 -49 112 -91 112 -94 0 -9 -103 50 -175 102 -134 95 -293 264 -387 411
-31 48 -95 174 -108 212 l-10 27 18 -25 c9 -13 37 -51 62 -85z m-940 76 c105
-40 180 -128 206 -240 15 -60 17 -246 4 -296 -5 -20 -8 4 -9 72 -1 121 -14
186 -51 268 -46 102 -119 168 -223 200 -41 13 -42 14 -10 14 18 1 56 -8 83
-18z m1399 -309 c46 -34 81 -62 77 -62 -22 0 -134 68 -201 121 -59 47 -73 55
-57 32 38 -53 105 -113 195 -174 98 -65 99 -75 4 -28 -91 46 -178 111 -237
176 -53 60 -115 173 -126 232 -6 31 4 22 127 -101 74 -74 172 -162 218 -196z
m-1788 210 c-107 -108 -213 -264 -298 -437 -70 -145 -84 -144 -24 0 34 81 69
147 155 290 12 20 2 13 -33 -23 -52 -54 -119 -177 -158 -289 -18 -53 -33 -69
-33 -35 0 9 7 45 15 80 31 129 112 248 242 355 71 57 201 147 214 147 4 0 -32
-40 -80 -88z m2031 -23 c88 -85 247 -191 353 -235 51 -21 46 -16 -50 47 -94
61 -229 165 -265 204 -14 15 31 -11 100 -57 186 -124 402 -260 407 -255 4 5
-126 121 -209 187 -58 45 -69 62 -26 40 101 -53 353 -285 453 -419 109 -145
202 -344 246 -526 27 -112 23 -126 -7 -25 -34 116 -100 268 -160 370 -83 144
-245 291 -379 346 -46 18 -41 12 35 -41 72 -51 191 -166 245 -235 104 -136
191 -323 231 -499 13 -58 22 -106 20 -108 -2 -2 -20 45 -40 104 -65 189 -189
423 -294 551 -38 46 -159 142 -180 142 -7 0 18 -26 56 -59 182 -156 293 -355
343 -614 20 -102 24 -158 8 -97 -50 183 -67 236 -98 310 -41 96 -108 202 -171
273 -55 62 -65 53 -12 -10 57 -67 126 -183 163 -272 37 -88 79 -235 78 -271 0
-14 -11 11 -23 55 -60 212 -161 407 -262 509 -22 21 -89 63 -154 96 -63 33
-141 76 -173 98 -78 52 -219 175 -252 218 -41 54 -42 32 -1 -24 49 -67 153
-163 237 -219 38 -25 67 -48 65 -51 -3 -2 -33 11 -68 29 -94 50 -244 203 -291
298 -36 72 -46 108 -28 96 6 -3 -2 16 -15 42 l-26 48 33 -40 c98 -121 220
-220 344 -282 103 -52 114 -47 18 8 -106 60 -240 162 -267 205 -15 22 -5 16
38 -23 32 -28 86 -65 120 -83 33 -17 53 -25 42 -18 -100 69 -160 125 -235 221
-26 33 -1 17 51 -34z m511 -5 c76 -48 171 -131 224 -196 63 -78 170 -253 225
-368 40 -85 98 -225 98 -237 0 -4 -28 49 -63 117 -59 115 -173 310 -182 310
-2 0 12 -35 32 -77 40 -89 93 -220 93 -231 0 -4 -28 45 -61 108 -103 195 -254
411 -382 548 -55 57 -49 66 16 26z m-2264 -105 c2 -206 -100 -355 -309 -452
-106 -50 -137 -55 -57 -10 83 47 160 107 195 153 l26 35 -37 -28 c-21 -16 -66
-41 -100 -56 -64 -29 -196 -66 -204 -57 -3 3 8 8 23 12 63 15 179 67 234 104
127 87 200 207 208 344 6 104 20 74 21 -45z m-164 10 c-35 -81 -84 -158 -142
-220 -45 -48 -133 -119 -148 -119 -4 0 21 30 55 67 74 79 166 201 218 289 45
76 52 68 17 -17z m223 -154 c-8 -51 -27 -118 -41 -149 -41 -88 -129 -167 -232
-206 -40 -15 -29 -4 28 28 65 37 137 113 172 182 31 61 65 186 66 244 0 38 1
39 12 17 8 -18 7 -45 -5 -116z m438 -74 c12 -52 15 -98 11 -155 -7 -102 10
-79 22 30 9 79 16 97 25 67 28 -97 42 -340 27 -481 -18 -174 -26 -168 -31 28
l-5 185 -23 -69 c-30 -94 -49 -283 -36 -370 13 -82 -4 -86 -25 -5 -11 44 -12
82 -3 214 7 88 14 171 17 185 4 20 2 18 -10 -7 -20 -43 -45 -191 -45 -267 -1
-55 -2 -59 -15 -42 -8 10 -25 49 -37 85 -20 57 -23 84 -22 206 1 143 27 309
59 379 8 17 13 22 10 11 -16 -72 -36 -251 -33 -301 l3 -59 28 59 c67 141 74
286 22 461 -3 11 6 -2 20 -30 13 -27 32 -83 41 -124z m574 89 c0 -29 63 -207
104 -293 39 -82 151 -252 212 -324 46 -54 39 -54 -23 -2 -70 60 -139 144 -184
224 -22 39 -37 59 -34 45 14 -49 85 -176 136 -240 l51 -65 -74 75 c-125 128
-193 294 -205 504 -5 82 -3 107 5 102 7 -4 12 -16 12 -26z m-928 -37 c-5 -10
-67 -138 -137 -286 -71 -147 -130 -265 -132 -263 -8 8 57 186 97 266 46 91
168 300 176 300 2 0 1 -8 -4 -17z m66 -73 c-19 -164 6 -373 62 -517 15 -40 26
-73 23 -73 -8 0 -70 143 -91 210 -11 36 -25 81 -31 100 -9 31 -10 28 -5 -27
10 -125 65 -271 140 -376 19 -27 33 -51 31 -53 -12 -12 -109 114 -146 188 -78
158 -89 310 -35 494 23 82 52 150 59 142 2 -1 -1 -41 -7 -88z m871 -377 c28
-71 89 -208 136 -303 54 -111 76 -165 60 -147 -84 94 -247 461 -304 684 -34
131 -23 138 18 12 22 -64 62 -174 90 -246z m2454 102 c75 -143 184 -248 332
-321 94 -46 96 -55 4 -28 -235 69 -397 264 -414 498 l-6 71 24 -75 c12 -41 40
-106 60 -145z m-1584 160 c156 -84 284 -207 342 -328 26 -55 57 -192 46 -203
-3 -3 -13 19 -22 48 -30 93 -107 228 -169 295 -32 35 -61 62 -63 59 -2 -2 12
-25 32 -52 50 -65 91 -149 115 -236 31 -113 24 -135 -13 -38 -64 168 -160 307
-297 433 -41 37 -70 67 -65 67 6 0 48 -21 94 -45z m-535 -204 c48 -63 130
-141 146 -141 6 0 -11 26 -38 58 -48 56 -98 126 -121 170 -20 38 -4 24 31 -25
18 -27 68 -85 112 -131 168 -175 347 -278 596 -343 l105 -28 -65 0 c-140 -1
-299 55 -462 163 -55 36 -27 6 36 -39 111 -79 256 -135 441 -171 l70 -14 -90
5 c-114 5 -227 35 -337 88 -47 23 -84 39 -82 35 3 -5 43 -31 90 -60 82 -50
109 -76 42 -42 -197 102 -420 335 -570 597 -63 110 -61 124 2 18 28 -46 70
-109 94 -140z m594 75 c52 -62 136 -231 151 -304 14 -66 14 -102 1 -102 -5 0
-10 6 -10 14 0 31 -55 177 -101 266 -27 52 -71 123 -99 158 -27 34 -50 65 -50
68 0 11 66 -49 108 -100z m-723 3 c60 -116 157 -254 280 -394 47 -54 60 -72
38 -57 -95 67 -291 340 -343 478 -16 41 -2 26 25 -27z m-310 -113 c20 -61 55
-148 76 -194 21 -47 39 -87 39 -90 0 -3 -13 7 -29 22 -50 48 -94 170 -125 345
-9 52 -2 36 39 -83z m1006 1 c29 -63 33 -84 36 -167 l3 -95 -24 105 c-13 58
-37 140 -54 183 -39 101 -11 82 39 -26z m-2132 -19 c-77 -153 -211 -274 -442
-403 -87 -48 -98 -40 -15 10 176 107 359 274 438 397 40 63 52 61 19 -4z
m-652 -50 c-140 -140 -283 -369 -398 -643 -46 -108 -50 -94 -9 36 38 122 116
276 219 431 l82 123 -55 -58 c-66 -69 -125 -153 -184 -262 -47 -87 -47 -70 0
39 109 252 275 423 411 426 25 0 20 -8 -66 -92z m583 72 c-22 -40 -197 -206
-273 -258 -72 -50 -284 -159 -292 -150 -2 2 62 47 143 101 81 53 210 149 287
211 77 63 141 115 143 115 1 1 -2 -8 -8 -19z m-271 6 c-2 -2 -44 -31 -94 -64
-154 -103 -275 -217 -385 -362 -48 -64 -55 -70 -35 -30 60 118 186 263 300
345 61 44 243 138 214 111z m536 -170 c8 -31 24 -75 36 -98 26 -51 113 -145
154 -165 24 -13 18 -3 -31 48 -34 35 -68 78 -76 94 -16 30 -39 105 -33 105 1
0 22 -30 46 -67 46 -70 141 -172 219 -234 44 -35 45 -38 44 -90 -1 -68 -34
-135 -105 -213 -65 -72 -58 -84 9 -17 60 60 104 148 125 246 12 53 16 62 16
35 1 -51 -24 -140 -58 -208 -30 -60 -117 -149 -173 -178 -16 -9 -27 -18 -24
-21 9 -9 99 49 152 99 58 54 106 138 125 213 6 28 15 53 19 58 3 4 24 -36 44
-88 95 -240 254 -494 388 -621 46 -43 109 -92 139 -107 30 -16 45 -21 34 -13
-136 109 -229 203 -311 316 -47 64 -124 192 -124 206 0 5 23 -29 50 -75 150
-251 355 -435 511 -456 40 -6 38 -4 -24 18 -189 67 -375 263 -516 544 -49 98
-121 270 -135 323 -4 14 24 -33 61 -105 98 -187 196 -322 304 -419 102 -92
247 -158 369 -169 69 -6 61 -2 -61 28 -181 45 -362 188 -479 377 -50 83 -68
128 -27 73 106 -145 267 -260 428 -305 109 -30 137 -24 41 9 -199 69 -367 211
-477 406 -35 61 -24 51 42 -40 51 -70 146 -167 214 -218 58 -44 52 -31 -18 35
-139 134 -226 316 -248 518 -5 55 -5 55 12 30 34 -48 122 -135 155 -154 32
-17 31 -17 -9 20 -50 47 -113 130 -113 150 0 9 21 -3 54 -30 72 -58 131 -80
199 -73 l52 5 17 -57 c19 -62 79 -161 124 -201 l28 -25 -17 25 c-61 88 -77
117 -86 161 -13 60 -14 89 -2 108 19 29 164 -190 234 -354 21 -49 36 -78 32
-62 -7 34 5 34 36 1 37 -39 151 -112 219 -140 63 -25 154 -48 228 -57 62 -8
46 2 -45 25 -156 40 -331 142 -391 230 -59 86 -45 90 35 10 107 -106 236 -172
368 -187 l50 -5 -55 15 c-164 46 -349 171 -422 284 -38 60 -35 65 10 23 20
-19 62 -47 92 -61 47 -22 68 -25 142 -24 l87 2 112 -117 113 -117 -35 -6 -34
-6 41 -2 c37 -1 45 -6 95 -68 87 -107 81 -101 70 -78 -13 28 -100 147 -120
165 -9 8 -35 37 -56 65 -22 27 -68 79 -102 116 -35 36 -60 69 -56 73 3 3 1 6
-6 6 -7 0 -46 28 -87 63 -41 34 -102 79 -137 101 -42 26 -53 36 -34 32 15 -3
39 -9 55 -12 l27 -6 -25 22 c-21 18 -22 21 -5 15 11 -3 68 -14 128 -25 59 -10
118 -25 132 -34 32 -21 118 -124 170 -206 52 -79 98 -124 190 -185 64 -43 60
-53 -7 -18 -47 23 -31 6 29 -31 31 -20 88 -48 126 -63 87 -34 73 -42 -16 -10
l-66 24 24 -32 c35 -45 174 -161 263 -220 67 -44 77 -54 80 -83 2 -17 -1 -32
-6 -32 -5 0 -13 -10 -17 -22 -4 -15 -8 -18 -12 -10 -4 10 -9 8 -20 -7 -15 -22
-61 -52 -49 -32 4 6 5 11 1 11 -9 0 -146 -70 -189 -98 -40 -24 -40 -24 -21 -2
l20 23 -22 -11 c-12 -7 -42 -35 -67 -64 -28 -33 -43 -44 -40 -30 4 11 22 39
41 61 19 23 30 41 25 41 -25 0 -92 -96 -122 -174 -16 -44 -22 -25 -11 40 5 33
7 61 6 62 -5 6 -25 -70 -25 -95 0 -45 -20 -22 -22 25 l-1 47 -6 -50 -6 -50
-22 30 -23 30 15 -44 c21 -62 19 -82 -5 -51 -25 32 -25 23 0 -31 22 -50 26
-102 7 -117 -27 -22 -166 -54 -264 -59 -81 -5 -133 -1 -243 17 l-139 23 37 27
c21 15 50 41 64 58 29 35 46 108 29 125 -8 8 -11 3 -11 -19 0 -17 -7 -39 -15
-50 -14 -18 -14 -18 -15 10 0 48 -37 112 -88 152 -26 21 -40 29 -31 19 36 -44
29 -46 -21 -6 -78 62 -206 124 -135 66 25 -20 20 -19 -35 9 -71 37 -141 61
-87 31 44 -25 24 -29 -23 -5 -23 12 -54 23 -69 25 -15 1 -51 10 -81 19 -29 9
-65 16 -79 16 -20 0 -14 -6 28 -25 30 -14 51 -28 48 -31 -7 -7 -84 14 -131 37
-48 23 -47 23 -40 4 8 -19 -2 -19 -75 4 -33 10 -59 16 -57 12 2 -3 -17 -5 -42
-4 -26 1 -39 0 -29 -3 35 -11 15 -21 -30 -16 -44 5 -47 4 -34 -11 12 -15 9
-17 -35 -17 -47 0 -91 -8 -143 -25 -17 -5 -21 -4 -16 4 4 8 -6 7 -29 -3 -22
-9 -36 -11 -36 -5 0 6 -16 2 -36 -10 -44 -26 -56 -27 -25 -1 31 26 15 25 -29
-1 l-35 -21 20 23 20 23 -25 -15 c-14 -9 -34 -30 -45 -47 -26 -40 -36 -40 -25
-1 8 26 7 29 -5 19 -21 -17 -19 -59 5 -103 11 -20 16 -37 12 -37 -15 0 -41 35
-56 76 l-15 39 0 -33 c-1 -39 22 -88 47 -101 18 -9 82 -3 82 8 0 3 -7 15 -15
25 -21 28 -19 42 3 23 26 -24 42 -21 42 7 0 32 20 45 21 14 0 -23 0 -23 9 -2
5 12 13 25 19 28 7 4 8 1 5 -8 -5 -12 1 -16 24 -16 16 0 45 -3 63 -7 32 -6 33
-5 19 12 -14 17 -13 18 25 12 22 -4 51 -10 65 -13 24 -6 25 -6 5 10 -19 15
-18 15 15 10 19 -3 49 -9 65 -13 17 -5 88 -7 159 -7 71 1 122 0 113 -2 -9 -2
-17 -8 -17 -14 0 -6 10 -8 24 -4 13 3 68 -1 122 -9 55 -8 103 -15 108 -15 6 0
-3 14 -19 30 -39 41 -10 39 32 -2 18 -18 33 -26 33 -19 0 7 -15 28 -34 47 -19
19 -29 34 -23 34 6 0 33 -24 60 -52 39 -42 48 -48 42 -28 -4 14 -18 42 -31 62
-18 28 -20 36 -8 31 9 -3 29 -26 45 -51 16 -25 29 -40 29 -33 0 7 5 9 10 6 6
-3 10 -17 10 -31 0 -14 4 -22 10 -19 15 9 12 42 -6 78 -15 30 -15 31 1 15 10
-9 25 -39 35 -68 12 -36 19 -46 24 -35 3 9 -3 37 -14 62 -11 26 -19 48 -16 50
8 8 39 -53 43 -88 3 -21 9 -36 14 -33 14 8 11 42 -6 74 -21 40 -10 38 15 -2
11 -18 20 -45 20 -60 0 -32 7 -35 26 -10 12 16 14 14 26 -16 7 -18 18 -30 24
-28 6 2 17 -1 24 -7 10 -9 11 -7 5 13 -4 14 -11 29 -16 35 -18 19 -8 28 11 10
11 -10 20 -31 20 -47 0 -36 15 -36 28 0 10 26 10 26 11 -11 1 -25 5 -36 12
-31 7 4 9 24 5 53 -5 46 -5 46 10 18 10 -19 13 -39 8 -60 -11 -52 -25 -67 -64
-67 -38 0 -120 33 -120 48 0 5 -12 15 -27 22 l-28 13 25 7 c22 6 17 9 -35 24
-139 42 -303 68 -290 46 3 -5 17 -10 31 -10 13 0 24 -4 24 -9 0 -4 -89 -11
-197 -14 -205 -5 -310 -21 -406 -58 -27 -11 -63 -21 -79 -23 -28 -3 -28 -3
-12 15 9 11 12 19 6 19 -19 0 -69 -49 -86 -85 -15 -30 -22 -35 -54 -36 -20 0
-116 -4 -212 -8 -120 -5 -178 -4 -185 3 -5 6 -11 26 -12 45 -1 19 -7 37 -13
41 -7 4 -10 18 -9 31 2 13 -2 33 -8 44 -6 11 -14 35 -18 53 -3 18 -11 30 -16
26 -15 -9 -10 79 8 137 10 30 18 59 18 64 1 6 11 41 23 79 27 85 28 146 2 228
-19 60 -28 178 -11 133 6 -14 9 -6 14 33 3 29 15 72 26 97 11 25 18 45 15 45
-21 0 -104 -63 -157 -120 -80 -85 -137 -166 -200 -290 -59 -116 -52 -80 9 46
58 119 127 217 228 322 45 47 71 80 60 74 -12 -6 -57 -49 -99 -94 -43 -46 -74
-76 -70 -68 21 38 97 129 143 173 28 26 48 47 44 47 -12 0 -101 -76 -144 -123
-21 -23 -34 -32 -29 -21 6 12 46 59 88 105 43 46 64 73 47 62 -17 -12 -37 -29
-44 -38 -7 -8 -17 -15 -23 -15 -6 0 10 22 36 48 26 26 47 52 47 57 0 5 -5 4
-12 -3 -7 -7 -16 -12 -21 -12 -5 0 23 34 62 75 74 78 180 216 208 269 29 55
24 12 -7 -65 -16 -41 -23 -65 -14 -54 28 36 91 168 115 242 12 40 24 71 26 69
2 -2 10 -29 18 -60z m2421 -186 c129 -292 209 -648 188 -843 l-8 -72 -12 120
c-14 125 -55 368 -61 361 -2 -2 3 -57 11 -122 9 -65 15 -145 15 -179 -1 -59
-2 -58 -15 35 -40 280 -86 501 -149 709 -18 63 -30 110 -25 105 5 -5 30 -56
56 -114z m1654 -47 c115 -31 221 -115 270 -214 l22 -44 -60 62 c-79 82 -179
145 -283 179 -46 15 -93 31 -104 35 -32 14 94 -1 155 -18z m415 -33 c83 -52
151 -155 162 -249 5 -44 -4 -187 -12 -179 -2 2 -10 42 -18 89 -22 130 -63 208
-162 306 -81 80 -82 81 -42 67 22 -8 54 -23 72 -34z m-4864 3 c-15 -28 -140
-145 -211 -197 -36 -27 -108 -73 -160 -104 -164 -95 -279 -205 -335 -320 -15
-30 -28 -52 -31 -50 -2 3 2 28 10 56 23 89 108 194 233 288 103 77 108 82 44
48 -78 -42 -177 -129 -251 -221 -36 -45 -67 -79 -69 -77 -11 10 99 152 168
216 64 59 68 65 27 37 -59 -42 -160 -147 -217 -228 -23 -33 -44 -59 -46 -57
-7 7 55 121 91 169 20 26 32 47 27 47 -15 0 -120 -119 -172 -196 -53 -78 -66
-92 -47 -46 58 137 214 323 343 409 122 82 297 156 420 178 l40 7 -35 -37
c-19 -20 -56 -50 -82 -67 -27 -17 -46 -33 -44 -35 11 -12 161 81 251 156 56
46 59 48 46 24z m1746 -23 c76 -35 217 -126 252 -164 l24 -26 -49 0 c-113 0
-221 60 -274 152 -29 52 -35 68 -25 68 3 0 35 -14 72 -30z m1016 -125 c29
-111 77 -364 76 -398 -2 -56 -70 191 -93 336 -33 205 -26 230 17 62z m-480 12
c39 -48 91 -136 85 -142 -2 -3 -44 48 -92 111 -62 82 -78 110 -57 95 17 -12
46 -41 64 -64z m417 -192 c7 -22 23 -62 37 -89 13 -26 19 -45 13 -41 -16 10
-61 104 -76 160 -15 54 -18 184 -6 225 4 16 9 -18 13 -95 4 -66 12 -138 19
-160z m449 159 c-7 -52 -9 -164 -6 -269 5 -195 26 -306 81 -429 14 -33 25 -61
22 -63 -6 -7 -64 90 -105 177 -22 47 -40 80 -40 74 -2 -26 40 -167 68 -230 17
-38 24 -60 15 -49 -28 36 -81 149 -103 220 -32 101 -61 313 -60 435 l0 105 23
-111 c13 -61 32 -136 42 -165 l19 -54 6 145 c4 80 14 179 23 220 9 41 16 79
16 84 0 5 2 7 5 4 3 -2 0 -45 -6 -94z m-570 -129 c18 -33 58 -91 88 -128 53
-66 54 -68 22 -52 -85 44 -177 181 -200 297 -19 95 -1 105 30 18 14 -41 41
-102 60 -135z m-110 21 c11 -26 30 -60 42 -77 33 -46 17 -44 -21 3 -36 45 -79
140 -80 175 0 12 5 34 12 50 11 26 12 24 19 -38 4 -37 16 -88 28 -113z m862
56 c16 -71 29 -75 30 -10 l1 53 20 -44 c46 -100 70 -310 49 -416 -8 -35 -9
-31 -10 37 -1 88 -18 220 -32 251 -6 15 -7 -24 -4 -113 2 -74 1 -173 -3 -220
l-8 -85 -8 110 c-10 139 -32 321 -51 422 -8 43 -15 83 -15 88 0 23 20 -24 31
-73z m-3568 -34 c-63 -65 -163 -194 -163 -210 0 -5 20 8 45 30 24 21 72 53
107 71 l63 32 -35 -28 c-81 -66 -139 -121 -197 -187 -68 -76 -82 -104 -32 -61
30 24 101 65 114 65 4 0 -15 -17 -42 -39 -51 -41 -150 -143 -195 -201 -23 -30
-27 -32 -28 -14 0 33 37 131 81 213 l41 76 -37 -35 c-20 -19 -68 -82 -106
-139 -38 -57 -69 -99 -69 -93 0 23 51 126 94 190 40 60 205 233 281 295 60 48
127 97 133 97 4 0 -21 -28 -55 -62z m3516 -398 c7 -41 19 -110 27 -153 9 -43
14 -83 11 -90 -7 -21 -65 82 -91 162 -32 95 -46 186 -45 276 1 76 2 75 21 -35
l13 -75 6 130 c3 72 12 157 20 190 l14 60 6 -195 c4 -107 12 -229 18 -270z
m1633 183 c20 -21 43 -52 51 -68 30 -60 48 -217 27 -230 -6 -4 -10 12 -10 42
0 88 -39 195 -95 262 -37 44 -17 39 27 -6z m-1010 -193 c5 0 -9 24 -31 52 -22
29 -38 54 -37 55 2 2 52 -30 112 -70 132 -90 275 -173 409 -239 81 -40 92 -48
60 -43 -67 11 -155 44 -262 99 -57 29 -98 47 -92 39 20 -23 150 -106 244 -155
49 -26 85 -48 79 -48 -43 -1 -256 93 -344 153 -37 25 -41 26 -25 8 51 -59 204
-144 355 -198 93 -33 94 -33 40 -27 -64 6 -226 57 -365 115 -134 55 -132 54
-120 41 23 -23 189 -99 315 -144 99 -34 126 -47 101 -47 -161 -3 -517 199
-653 371 -35 44 -31 44 42 -8 48 -34 93 -58 137 -75 26 -9 25 -8 -7 18 -95 76
-181 173 -216 248 -13 26 -11 25 17 -10 46 -58 162 -167 201 -190 32 -19 32
-18 -13 35 -40 48 -108 145 -134 190 -5 8 33 -27 85 -77 51 -51 97 -93 102
-93z m810 109 c167 -36 249 -124 239 -258 -1 -8 -15 13 -32 47 -50 102 -142
166 -287 202 l-77 19 52 0 c29 1 76 -4 105 -10z m-277 -49 c217 -55 386 -153
449 -262 19 -31 17 -30 -35 16 -110 100 -219 160 -414 227 -122 42 -122 49 0
19z m-817 -93 c92 -115 217 -204 427 -307 77 -38 194 -88 260 -110 128 -43
104 -45 -60 -4 -98 24 -402 125 -478 158 -23 10 -36 12 -32 5 19 -30 212 -103
425 -160 117 -31 134 -37 85 -33 -158 15 -373 76 -495 139 -95 50 -186 129
-231 198 -21 33 -39 64 -39 69 0 6 23 -11 51 -36 53 -47 89 -64 52 -23 -23 25
-63 100 -63 118 0 7 27 -18 61 -55 84 -91 113 -104 50 -21 -29 37 -63 90 -77
119 -27 56 -31 59 64 -57z m543 27 c169 -84 481 -206 494 -192 3 2 -29 31 -70
63 -41 32 -75 60 -75 63 0 9 118 -63 196 -119 117 -84 226 -190 280 -271 83
-124 122 -280 94 -368 -6 -18 -8 -8 -9 40 -4 217 -129 418 -317 512 -50 24
-89 38 -99 34 -24 -9 -8 -26 74 -84 112 -78 108 -78 -57 -1 -164 77 -507 279
-611 360 -38 30 -18 23 100 -37z m337 -8 c117 -40 227 -103 296 -170 90 -87
106 -124 24 -54 -88 74 -185 137 -303 197 -55 28 -97 51 -94 51 3 0 38 -11 77
-24z m-888 -284 c107 -52 234 -179 283 -282 20 -41 39 -90 42 -107 6 -30 4
-33 -17 -33 -19 0 -29 14 -60 79 -44 92 -156 217 -288 322 -44 34 -80 64 -80
66 0 9 48 -10 120 -45z m-100 -53 c68 -41 118 -103 136 -166 15 -53 15 -112 0
-68 -28 81 -74 150 -135 205 -36 33 -62 60 -59 60 4 0 30 -14 58 -31z m156
-72 c27 -32 66 -110 79 -157 3 -14 -10 7 -30 47 -19 39 -59 98 -88 129 -40 45
-45 53 -20 36 17 -12 44 -37 59 -55z m1117 -7 c64 -59 127 -171 153 -273 9
-37 18 -66 20 -64 7 7 -25 173 -41 211 -25 59 -10 54 18 -6 42 -89 60 -167 61
-258 0 -95 -14 -162 -56 -264 -15 -38 -26 -71 -24 -73 2 -2 24 36 50 84 41 77
46 83 40 48 -10 -57 -40 -130 -75 -182 -60 -87 -157 -134 -273 -132 -58 1 -59
2 -26 11 100 29 147 64 185 137 28 56 55 146 55 180 -1 21 -5 16 -19 -21 -29
-75 -87 -150 -146 -191 -28 -19 -28 -18 6 19 50 53 85 112 108 181 27 80 45
249 36 331 l-8 67 -12 -90 c-16 -113 -22 -139 -51 -197 -34 -67 -46 -68 -22
-1 15 42 22 91 26 173 5 131 -9 206 -56 303 -36 72 -22 74 51 7z m-1274 -53
c14 -27 15 -33 4 -17 -10 14 -33 41 -50 61 -18 20 -33 40 -33 45 0 16 57 -48
79 -89z m-260 9 l44 -46 -169 0 c-274 -1 -377 -30 -470 -133 -24 -27 -44 -53
-44 -58 0 -12 -81 -11 -99 0 -20 13 33 105 84 146 60 48 71 52 45 15 l-23 -33
64 36 c73 41 204 93 194 77 -9 -14 4 -13 78 10 36 11 71 18 78 15 8 -3 43 3
79 14 38 11 71 15 80 10 8 -4 35 -28 59 -53z m-3999 -19 c-127 -52 -265 -171
-308 -266 -16 -35 -27 -79 -29 -116 l-3 -60 24 63 c31 81 65 129 143 202 101
95 116 91 23 -6 -87 -91 -143 -180 -155 -246 -8 -42 16 -138 40 -158 26 -21
17 -31 -14 -16 -84 44 -131 127 -130 231 l1 70 10 -53 c5 -30 12 -52 14 -49 2
2 11 30 19 61 8 31 24 75 36 98 30 59 112 143 181 184 63 38 164 83 188 83 8
0 -10 -10 -40 -22z m4044 -82 c32 -8 68 -22 79 -30 27 -19 20 -19 -32 0 -22 8
-41 12 -41 10 0 -2 19 -23 43 -45 l42 -41 -42 20 c-47 23 -57 26 -48 11 8 -13
7 -13 -62 5 -108 28 -244 14 -346 -36 -40 -19 -195 -44 -206 -33 -13 13 107
96 180 125 102 40 308 46 433 14z m-2104 -55 c69 -11 223 -60 215 -68 -3 -3 2
-14 12 -24 15 -17 15 -18 -14 -18 -17 0 -56 11 -86 25 -112 49 -270 51 -408 5
-60 -21 -121 -24 -199 -11 l-45 8 45 20 c142 64 323 87 480 63z m3170 -6 c0
-9 -106 -52 -170 -69 -122 -32 -100 -9 31 32 74 23 135 42 137 42 1 1 2 -1 2
-5z m-4905 -272 c-30 -103 -94 -180 -177 -211 -16 -6 -28 -9 -28 -7 0 1 20 17
44 34 90 65 156 206 156 335 0 77 15 62 18 -18 2 -49 -3 -97 -13 -133z m92
114 c-12 -165 -92 -315 -206 -388 -66 -41 -81 -34 -24 11 59 46 113 118 148
193 30 66 65 198 65 245 0 23 4 32 11 27 8 -5 10 -32 6 -88z m4053 39 c122
-17 166 -32 65 -21 -139 14 -585 19 -760 7 -179 -12 -446 -43 -518 -60 -34 -8
-59 1 -44 15 13 13 407 66 577 78 137 9 569 -3 680 -19z m-2130 -40 c102 -7
214 -18 250 -24 36 -5 146 -17 245 -26 99 -9 181 -18 184 -20 26 -27 -280 -14
-464 19 -198 36 -522 50 -950 42 -187 -4 -398 -13 -470 -21 -166 -19 -185 -19
-185 0 0 9 10 15 28 16 15 0 126 9 247 19 180 16 284 18 575 14 195 -2 438
-11 540 -19z m2220 4 c41 -6 77 -13 79 -15 3 -2 -49 -1 -115 3 -65 5 -271 8
-456 8 -185 0 -335 2 -333 4 21 20 676 20 825 0z m478 9 c9 -9 12 -77 12 -244
l0 -233 -25 -28 -24 -28 -1 266 c0 283 3 302 38 267z m-1347 -29 c-14 -5 -45
-26 -70 -47 -35 -28 -57 -38 -96 -42 l-50 -5 -3 -47 c-5 -75 57 -186 122 -220
12 -6 1 11 -24 38 -72 77 -90 144 -39 144 11 0 69 -17 127 -37 100 -34 115
-37 227 -37 133 0 209 15 307 64 32 16 58 25 58 20 0 -15 -102 -70 -142 -76
-21 -4 -38 -11 -38 -16 0 -15 72 3 129 33 30 16 57 27 59 24 10 -9 -60 -64
-101 -78 -23 -9 -35 -16 -27 -16 8 0 35 8 60 19 45 20 45 20 22 0 -36 -30
-117 -50 -206 -51 -55 0 -74 -3 -61 -9 34 -15 178 -11 228 6 57 19 131 83 158
136 11 22 23 38 26 35 8 -8 -33 -93 -56 -116 -12 -12 -16 -21 -11 -21 6 0 28
18 50 40 51 51 53 34 2 -20 -22 -22 -36 -40 -33 -40 17 0 51 34 86 84 21 31
40 54 42 52 8 -8 -29 -71 -60 -103 -36 -38 -29 -42 20 -12 18 12 47 44 63 73
36 62 40 38 5 -28 -13 -25 -21 -46 -17 -46 10 0 52 45 75 80 10 13 17 21 17
17 0 -16 -31 -82 -47 -99 -33 -36 9 -18 48 21 41 40 54 32 19 -12 -11 -14 -20
-28 -20 -31 0 -8 32 5 63 26 21 15 27 16 27 5 0 -15 -36 -51 -60 -60 -9 -3 -4
-6 12 -6 15 -1 40 10 57 25 38 31 40 22 6 -22 -17 -22 -20 -32 -10 -28 8 3 15
3 15 0 0 -6 -64 -164 -96 -235 -24 -53 -11 -46 36 19 23 34 45 59 48 56 8 -9
-64 -112 -111 -158 -34 -33 -37 -40 -19 -36 12 4 20 2 16 -3 -11 -18 -62 -38
-130 -51 l-69 -13 60 -6 c33 -3 -93 -6 -280 -7 -494 -2 -574 10 -666 101 -117
115 -238 377 -222 481 12 80 66 152 132 178 32 12 307 66 341 66 l25 1 -24
-10z m227 -11 c-2 -18 -11 -24 -35 -26 -27 -3 -33 0 -33 17 0 14 8 21 28 24
15 2 31 5 35 6 5 0 7 -9 5 -21z m237 -3 c28 -27 29 -33 15 -71 -10 -26 -10
-26 22 -20 l33 6 -30 -20 c-30 -20 -115 -50 -144 -50 -11 0 -10 5 7 23 26 28
42 69 42 111 0 53 17 60 55 21z m-3291 -92 c3 -54 9 -176 12 -272 l7 -174 55
-52 c39 -37 67 -76 96 -136 92 -187 193 -213 816 -214 354 0 411 4 539 42 9 2
-4 -7 -29 -21 l-45 -25 42 -1 c23 0 44 -4 47 -8 2 -4 -2 -39 -11 -77 -25 -119
-5 -244 50 -304 30 -32 94 -61 140 -61 20 0 36 3 35 8 -1 4 10 20 26 37 36 39
60 36 161 -23 71 -42 88 -47 150 -50 52 -3 86 1 132 17 80 27 97 27 90 1 -6
-23 3 -26 23 -7 12 10 12 9 1 -5 -10 -14 -10 -20 1 -31 17 -19 48 -7 100 37
22 20 63 40 97 50 67 19 124 68 142 124 17 53 6 167 -24 240 -25 61 -24 67 12
63 8 -2 10 2 6 10 -6 9 0 10 21 5 l29 -7 -35 30 c-19 17 -33 30 -30 31 3 0 68
-7 145 -15 180 -19 545 -19 685 0 94 12 200 33 270 51 37 10 15 -8 -33 -28
-62 -25 -11 -23 55 2 40 15 48 16 33 5 -11 -9 -39 -21 -62 -28 -24 -6 -43 -15
-43 -20 0 -15 72 3 119 29 60 33 63 24 5 -15 -54 -36 -51 -40 7 -11 22 12 74
53 116 93 42 40 70 61 63 47 -25 -47 -113 -130 -164 -154 -37 -19 -45 -25 -28
-26 13 0 20 -4 17 -10 -3 -5 -1 -10 6 -10 7 0 4 -7 -7 -15 -17 -13 -14 -13 29
-1 26 8 54 20 62 26 26 21 16 0 -22 -54 l-38 -51 39 30 c42 32 41 23 -6 -37
-16 -21 -27 -42 -23 -48 3 -6 -8 -36 -25 -68 -31 -55 -31 -56 -5 -27 24 27 25
27 14 5 -7 -14 -30 -53 -51 -88 -21 -34 -38 -67 -38 -72 0 -20 19 -9 50 28
l32 37 -27 -50 -28 -50 32 35 c38 41 37 37 -18 -53 -22 -37 -41 -70 -41 -74 0
-4 19 11 43 32 23 22 36 33 30 26 -16 -19 -17 -35 -2 -25 6 4 -1 -14 -15 -39
-15 -25 -28 -54 -30 -64 -2 -10 -30 -62 -61 -114 -53 -89 -55 -92 -21 -60 20
19 38 33 40 30 2 -2 -14 -35 -35 -72 -45 -79 -47 -88 -18 -61 13 11 4 -8 -20
-45 -22 -35 -41 -68 -41 -74 0 -5 -11 -22 -25 -39 -14 -16 -25 -35 -25 -43 0
-7 -7 -18 -16 -25 -8 -8 -20 -23 -26 -34 -11 -21 -11 -21 11 -2 31 28 38 11 9
-26 -45 -59 -120 -173 -122 -183 -1 -6 -12 -25 -25 -44 l-24 -33 54 29 c30 15
59 30 64 32 6 2 -19 -29 -55 -69 -60 -69 -66 -85 -12 -37 34 31 26 11 -14 -39
-21 -25 -31 -44 -23 -44 7 0 -4 -17 -25 -39 -20 -21 -38 -45 -40 -54 -1 -9
-11 -25 -21 -37 -10 -11 -19 -29 -20 -39 -2 -31 -114 -178 -205 -271 -89 -91
-197 -176 -291 -229 -211 -119 -557 -171 -988 -150 -310 15 -371 35 -566 181
-195 147 -365 331 -589 641 -59 81 -109 147 -111 147 -3 0 -2 -7 1 -15 15 -38
-9 -6 -71 95 -65 107 -100 153 -52 68 31 -55 120 -216 136 -247 7 -13 8 -21 3
-17 -18 11 -157 227 -218 338 -32 59 -60 105 -62 103 -2 -2 10 -36 27 -76 17
-40 29 -74 27 -76 -11 -12 -142 237 -197 375 -97 243 -288 838 -315 981 -19
99 -16 313 4 333 9 9 12 7 12 -13 0 -13 5 -31 10 -39 7 -11 9 -7 5 15 -2 17
-6 50 -9 75 l-5 45 15 -35 14 -35 -5 38 c-3 20 -4 37 -2 37 2 0 17 -33 32 -72
32 -81 42 -80 21 2 l-14 55 28 -35 c16 -19 31 -32 35 -28 3 3 2 100 -4 214
-14 268 -14 274 3 274 10 0 15 -25 20 -97z m2890 25 c3 -14 18 -41 33 -59 l27
-32 -64 7 c-146 15 -150 16 -150 43 0 29 40 69 95 94 45 20 43 22 59 -53z
m1089 25 c20 -44 22 -63 22 -243 0 -213 -9 -267 -56 -361 -30 -60 -74 -104
-126 -126 -51 -21 -61 -15 -20 12 20 14 37 27 37 29 0 2 -30 -9 -67 -24 -38
-16 -90 -31 -118 -34 l-50 -6 55 15 c69 20 131 56 181 106 54 54 49 68 -8 22
-35 -29 -43 -33 -34 -16 6 13 13 41 16 63 4 40 68 185 87 196 5 3 17 -1 27
-10 14 -13 16 -28 13 -76 -3 -36 0 -60 6 -60 17 0 23 50 29 260 5 196 5 208
-16 247 -24 48 -25 53 -10 53 5 0 20 -21 32 -47z m-3313 16 c-36 -12 -69 -25
-74 -30 -13 -12 6 -12 38 1 14 5 26 6 26 1 0 -5 -7 -12 -16 -15 -9 -4 -14 -9
-11 -12 3 -3 15 -1 26 6 29 15 26 2 -6 -33 l-28 -29 42 21 c45 23 47 22 57
-26 9 -42 59 -109 98 -133 31 -18 54 -18 43 1 -4 5 -1 9 5 9 6 0 8 5 5 10 -3
6 2 10 11 10 11 0 2 11 -23 29 -22 16 -52 44 -66 62 -25 32 -26 34 -7 37 11 2
46 -13 77 -32 97 -59 136 -70 253 -69 77 0 122 6 168 21 34 11 65 16 67 11 12
-18 -27 -69 -71 -95 -24 -14 -75 -35 -112 -45 l-67 -19 66 5 c86 7 163 34 235
82 31 21 70 46 85 56 16 11 29 23 29 29 0 17 -22 52 -53 85 -17 18 -28 36 -24
39 9 10 62 -15 92 -42 33 -30 32 -22 -2 23 l-28 36 40 -7 c101 -17 179 -50
222 -92 51 -51 61 -93 45 -185 -36 -208 -163 -468 -252 -514 -57 -30 -210 -47
-465 -52 -382 -8 -639 18 -754 76 -44 23 -88 71 -107 118 -22 51 -43 204 -50
357 -8 181 0 210 71 248 104 57 193 75 370 76 l110 1 -65 -20z m3281 -22 c10
-18 6 -17 -20 7 -36 34 -39 41 -11 26 11 -6 25 -20 31 -33z m-3003 -10 c6 -24
23 -60 36 -80 l25 -37 -22 0 c-33 1 -99 34 -127 64 l-25 28 37 34 c21 19 44
34 52 34 8 0 18 -18 24 -43z m192 18 c0 -21 -5 -25 -29 -25 -20 0 -30 6 -34
19 -6 25 0 31 35 31 23 0 28 -4 28 -25z m3118 -142 c-2 -114 -6 -157 -15 -161
-10 -3 -13 32 -13 151 0 84 3 157 7 160 19 20 23 -7 21 -150z m-2880 104 c22
-20 52 -68 52 -82 0 -11 -30 -4 -37 10 -7 12 -16 11 -57 -10 -27 -14 -60 -25
-73 -25 l-24 0 20 28 c11 16 25 49 31 75 12 44 13 45 39 36 14 -6 37 -20 49
-32z m-1619 -99 c28 -109 30 -251 5 -303 -15 -33 -57 -65 -84 -65 -7 0 0 14
14 31 14 17 26 36 26 42 0 6 -13 -4 -28 -23 -23 -27 -36 -34 -65 -34 -35 0
-87 28 -94 51 -2 6 9 16 25 22 43 18 108 89 133 146 16 37 24 77 27 149 3 54
8 92 12 85 4 -8 17 -53 29 -101z m5471 -29 c23 -169 -31 -310 -147 -390 -44
-31 -170 -79 -205 -79 -12 0 -16 -4 -12 -11 12 -19 142 -5 199 22 64 30 145
111 179 177 15 29 28 52 31 52 4 0 -16 -69 -33 -110 -35 -85 -127 -158 -228
-181 -42 -10 -70 -9 -147 4 -53 9 -118 25 -146 36 -28 10 -51 16 -51 12 0 -18
89 -94 135 -115 54 -26 180 -55 242 -57 l38 -1 -35 -10 c-19 -6 -71 -8 -114
-5 -116 8 -220 61 -313 161 -59 63 -146 196 -128 196 3 0 36 -15 73 -34 138
-69 253 -73 362 -15 74 39 127 101 176 204 34 68 34 69 34 32 0 -44 -33 -148
-62 -194 -27 -44 -8 -42 32 4 69 78 107 214 97 346 -6 93 9 64 23 -44z m-1858
75 c-44 -31 -129 -63 -196 -75 -73 -12 -214 -7 -244 10 -11 6 10 8 63 4 101
-7 203 9 296 46 84 33 115 39 81 15z m-3837 -81 c-80 -192 -248 -315 -424
-312 l-56 1 53 9 c168 28 300 121 399 280 20 33 38 59 40 59 2 0 -4 -17 -12
-37z m2671 -58 c44 -26 64 -58 115 -190 29 -75 59 -137 123 -247 36 -62 65
-147 81 -233 l13 -70 1 54 c1 67 16 59 56 -32 34 -73 46 -197 25 -247 -14 -33
-54 -70 -77 -70 -8 0 -21 16 -28 35 -8 19 -24 39 -35 45 -21 11 -21 11 5 41
39 47 30 55 -17 15 -23 -20 -48 -36 -55 -36 -8 0 -12 -4 -9 -8 3 -5 -19 -16
-48 -25 -49 -16 -77 -33 -159 -99 -25 -20 -40 -23 -116 -23 -83 0 -92 3 -177
44 -117 58 -182 66 -223 27 -54 -52 -101 -8 -117 108 -8 52 16 147 56 230 29
59 77 128 67 95 -3 -9 -9 -54 -12 -100 -9 -100 4 -98 30 6 9 39 22 79 27 89 6
11 11 38 12 60 2 57 157 441 198 491 65 78 172 94 264 40z m-2610 -301 c43
-18 99 -12 157 17 43 22 45 19 16 -22 -32 -46 -94 -72 -166 -73 -34 0 -60 -3
-57 -7 10 -17 79 -31 121 -25 52 7 50 -2 -9 -45 -50 -35 -116 -39 -165 -10
-32 20 -85 90 -102 134 -9 22 -6 26 30 42 21 10 44 24 51 32 10 12 15 11 30
-9 l19 -23 -7 28 -7 29 27 -27 c14 -14 42 -33 62 -41z m4720 -219 c-13 -51
-13 -55 1 -43 14 11 15 10 10 -7 -3 -11 -20 -85 -36 -165 -91 -441 -214 -834
-308 -984 -33 -53 -312 -374 -326 -375 -5 -1 13 38 38 85 53 96 48 104 -11 18
-60 -87 -51 -48 17 72 34 60 74 133 91 162 16 28 27 52 24 52 -3 0 -28 -34
-56 -75 -28 -41 -53 -75 -55 -75 -3 0 19 39 47 88 29 48 78 131 109 185 32 53
57 97 55 97 -2 0 -27 -31 -57 -70 -51 -68 -77 -94 -46 -47 62 95 151 245 157
266 5 14 20 56 34 94 14 37 26 71 26 75 0 4 -18 -21 -41 -55 -46 -72 -76 -98
-35 -32 75 120 118 226 136 336 11 59 31 144 45 187 29 87 66 178 71 173 2 -1
-3 -27 -11 -56 -7 -29 -16 -82 -20 -119 l-6 -67 49 131 c78 210 138 300 98
149z m-1567 -20 c86 -18 417 -38 538 -33 61 3 86 1 71 -5 -13 -5 -138 -7 -278
-4 -276 5 -361 17 -452 63 -63 32 -61 39 4 13 28 -11 81 -26 117 -34z m704
-32 c-13 -2 -33 -2 -45 0 -13 2 -3 4 22 4 25 0 35 -2 23 -4z m-3712 -40 c-24
-45 -118 -102 -168 -103 -12 0 -25 -5 -29 -11 -4 -8 22 -10 92 -8 l99 4 27
-80 c42 -123 58 -238 58 -414 0 -189 11 -237 72 -307 l43 -48 -33 20 c-76 43
-136 144 -148 246 -4 32 -1 99 6 152 13 100 6 213 -11 169 -20 -53 -117 -17
-199 74 -44 50 -120 182 -120 209 0 5 30 10 68 10 79 2 161 30 212 74 41 35
44 36 31 13z m4797 -203 c81 -29 114 -65 120 -132 6 -75 -10 -87 -75 -58 -77
34 -125 88 -149 166 l-13 44 30 0 c16 0 55 -9 87 -20z m62 -270 c25 0 25 3 -4
-61 -13 -30 -29 -80 -36 -111 -7 -32 -17 -58 -21 -58 -26 0 -71 121 -84 222
l-7 56 66 -24 c37 -13 76 -24 86 -24z"/>
<path d="M4875 6780 c5 -8 36 -48 70 -90 103 -128 230 -346 330 -570 26 -58
52 -109 57 -115 14 -15 -2 52 -38 162 -57 176 -147 335 -261 465 -59 67 -174
175 -158 148z"/>
<path d="M3058 4013 c7 -3 16 -2 19 1 4 3 -2 6 -13 5 -11 0 -14 -3 -6 -6z"/>
<path d="M1063 4841 c-57 -28 -183 -107 -183 -116 0 -4 231 124 245 136 15 15
3 10 -62 -20z"/>
<path d="M3941 3439 c-73 -29 -120 -97 -121 -175 0 -67 58 -223 105 -279 l16
-20 -4 20 c-3 11 -15 46 -26 77 -14 37 -20 78 -19 115 1 40 2 47 5 23 3 -19 9
-39 15 -45 8 -7 9 -4 4 9 -10 27 13 133 25 115 7 -11 9 -9 9 7 0 12 20 48 43
81 35 46 40 59 26 59 -10 0 -16 -3 -14 -6 2 -3 -5 -6 -15 -6 -18 0 -18 2 -3
18 15 17 15 18 -3 17 -10 0 -30 -5 -43 -10z"/>
<path d="M3931 3230 c0 -14 4 -34 9 -45 7 -17 9 -16 9 10 0 17 -4 37 -9 45 -8
12 -10 10 -9 -10z"/>
<path d="M5168 2573 c7 -3 16 -2 19 1 4 3 -2 6 -13 5 -11 0 -14 -3 -6 -6z"/>
<path d="M3660 1656 c-19 -8 -59 -23 -88 -35 -69 -28 -92 -27 -200 9 -115 38
-191 39 -299 6 -119 -36 -126 -37 -303 -45 -127 -6 -173 -11 -198 -25 -42 -22
-31 -40 38 -60 68 -20 87 -32 156 -95 260 -237 721 -332 1119 -231 135 34 213
79 326 188 112 108 165 147 218 162 81 22 80 51 -2 75 -39 11 -90 15 -193 13
-123 -2 -151 1 -244 25 -119 31 -268 36 -330 13z m380 -221 c7 -20 8 -49 4
-68 l-7 -32 -10 35 -10 35 -10 -38 c-5 -20 -22 -51 -38 -68 -33 -35 -50 -33
-25 3 20 29 21 72 0 89 -13 11 -14 9 -9 -12 41 -164 -362 -244 -722 -143 -77
22 -117 53 -121 92 -3 28 -6 31 -18 21 -11 -9 -14 -8 -14 9 0 12 10 28 22 36
17 12 19 16 6 16 -9 0 -28 -13 -41 -30 -42 -49 -53 -31 -15 22 l21 30 -24 -12
c-13 -7 -32 -19 -41 -28 -23 -19 -23 -5 -1 20 15 17 15 18 -8 18 -23 1 -24 1
-4 16 17 12 71 14 395 9 310 -5 470 -2 642 14 11 0 21 -11 28 -34z"/>
<path d="M4939 1333 c-13 -16 -12 -17 4 -4 16 13 21 21 13 21 -2 0 -10 -8 -17
-17z"/>
<path d="M1750 3425 c-25 -8 -58 -26 -74 -41 l-29 -27 7 -106 c11 -158 33
-318 43 -308 2 3 -1 40 -6 83 -6 45 -7 92 -3 109 l9 30 11 -35 c7 -19 23 -48
37 -65 l26 -30 -16 32 c-22 46 -19 49 11 13 15 -17 28 -29 30 -27 3 2 -7 28
-21 58 -14 30 -25 60 -25 67 0 23 17 12 30 -18 15 -37 34 -52 21 -17 -15 39 1
41 32 5 23 -27 26 -28 16 -8 -10 23 -8 22 23 -7 19 -18 37 -33 41 -33 4 0 -4
22 -18 50 -27 53 -30 64 -16 56 5 -3 9 5 9 19 0 14 -3 23 -7 21 -3 -3 -7 12
-8 32 -3 46 -9 90 -18 131 -8 36 -29 39 -105 16z"/>
</g>
</svg>
