<svg id="Layer_1" data-name="Layer 1" xmlns="http://www.w3.org/2000/svg" viewBox="0 0 88.26 91.93"><defs><style>.cls-1{fill:#fff}</style></defs><g id="Welcome"><g id="Desktop"><path d="M41.41 92a3.1 3.1 0 00-1-.09 14.92 14.92 0 01-5.6-1.44 9.17 9.17 0 01-1.62-1c-1.41-1.1-2.93-2.06-4.33-3.18a35.14 35.14 0 01-8-8.89A20.75 20.75 0 0119 73.54c-.06-.17-.12-.21-.31-.19a4.57 4.57 0 01-4.78-2.47.58.58 0 010-.14 4.19 4.19 0 002.32 1.84 2.31 2.31 0 001.14 0 8.57 8.57 0 01-5.41-6.36l.41.22a.41.41 0 00.62-.3 2.24 2.24 0 00.07-.44c0-.2 0-.28-.24-.34a5.69 5.69 0 01-3-2 5 5 0 01-1-2.74.34.34 0 010-.1v-.05c.41 1.93 1.35 3.23 2.68 3.64l-.73-.55a4.12 4.12 0 01-1.64-3.26c0-.14 0-.18-.18-.2A2.37 2.37 0 017.2 59c0-.08-.12-.16-.09-.27a2.11 2.11 0 003 .31 5.7 5.7 0 01-1-.54 2.1 2.1 0 01-1.13-2c0-.21-.1-.14-.2-.11a7.54 7.54 0 01-1.71.2 4.67 4.67 0 01-4.67-3.13 8.08 8.08 0 01-.4-1.3.74.74 0 010-.37 3.35 3.35 0 001.78 1.79 4.28 4.28 0 002.53.14c-.06-.12-.17-.12-.25-.15a6.82 6.82 0 01-2.49-1.68 4 4 0 01-1.09-3.14 5 5 0 00.17 1.09 4.19 4.19 0 00.42 1.06 3.36 3.36 0 00.73.91 4 4 0 001 .6 3.21 3.21 0 001.09.29 5.44 5.44 0 01-1.41-.7 4.33 4.33 0 01-1.75-3.21 10.11 10.11 0 01.34-3.63 2.46 2.46 0 00.07-.29c-.31.09-.32.11-.85 1.23a5.31 5.31 0 01.29-1.85 6.36 6.36 0 01.88-1.67 1.91 1.91 0 01-2-.22c.79.2 1.55.34 2-.61a2.54 2.54 0 01-2-.27c.13-.14.25-.26.36-.4a2.28 2.28 0 00.53-1.5 8.82 8.82 0 01.13-1.85 2.71 2.71 0 011.66-2.12h.07v-.06a2.4 2.4 0 00-2 1.61 1.37 1.37 0 01.27-.9 3.06 3.06 0 011.72-1.19 1.59 1.59 0 001.09-1.19 17.33 17.33 0 00.42-2.46 11 11 0 012.18-5.57A11.79 11.79 0 0110 23.12l.25-.16v-.06c-2.1.93-4 2-4.93 4.34a1.2 1.2 0 01.12-.62 5.48 5.48 0 011.73-2.35 10.52 10.52 0 013.48-1.89.53.53 0 00.39-.48c.08-.53.06-1.06.18-1.59a8.11 8.11 0 012.89-4.5 12.85 12.85 0 011.61-1.12c.11-.07.17-.12.15-.27a4.45 4.45 0 012-4.24 4.32 4.32 0 011.16-.62 4.65 4.65 0 00-2.67 3.49c.08-.19.14-.38.22-.56A5.42 5.42 0 0119 10a11 11 0 012.71-1c.12 0 .24 0 .3-.19a4.39 4.39 0 012.17-2.34 7.75 7.75 0 012.89-.91.61.61 0 00.54-.36 4.58 4.58 0 012-1.75 10.92 10.92 0 013.65-1.15 18.75 18.75 0 013.13-.23 3.64 3.64 0 00-1.08-.18 13.8 13.8 0 00-5.12.32 4.17 4.17 0 00-2.64 2l-.07.07a3.08 3.08 0 011.2-1.7 7.69 7.69 0 013-1.3 19.1 19.1 0 014.8-.42h1.28A4.24 4.24 0 0036.2.08a3.57 3.57 0 011 0 13.48 13.48 0 014.14.92 2.06 2.06 0 001.17.12C44 .94 45.37.64 46.83.57a17.61 17.61 0 017.92 1.31A1.71 1.71 0 0155 2a18.73 18.73 0 00-10.37-.89L45.67 1a20.15 20.15 0 018.51 1 22.3 22.3 0 014.41 2 4.22 4.22 0 001.24.33 6.79 6.79 0 013.43 1.87.58.58 0 00.32.16 12.51 12.51 0 014.49 2.47A8 8 0 0170.69 13a.24.24 0 010 .12 13.89 13.89 0 00-1.55-2.18 9.76 9.76 0 00-3.36-2.69 4.67 4.67 0 00-1.65-.42l2.51 1.41-1.46-.55A16.45 16.45 0 0167.74 11a5.22 5.22 0 00-2-1.06c0 .13 0 .2.08.28A12.34 12.34 0 0069 13.79a16 16 0 003.17 2 3.87 3.87 0 012.21 3.28 2.21 2.21 0 010 .77 7.62 7.62 0 00-.43-1.3 2.6 2.6 0 00-.67-1 1.34 1.34 0 00-1.14-.31A5.11 5.11 0 0174 21a3.18 3.18 0 00-1.33-1.66.68.68 0 00-.53-.09A11.12 11.12 0 0073 21.1a8.35 8.35 0 002.59 2.9A6.06 6.06 0 0079 25a.78.78 0 01.36.06l-.82.42 1.82-.48a7.21 7.21 0 01-1.62 1.12 2.52 2.52 0 001.63.07 3.25 3.25 0 01-1.77.81 3.42 3.42 0 01-2-.28c1 .92 3.12 2 4.87 1.54a3.36 3.36 0 01-1.45.8 3.09 3.09 0 011.41 2.83 4 4 0 00-.59-1.55 1.63 1.63 0 00-1.46-.63v.11A4.73 4.73 0 0181 33a11.91 11.91 0 01-.29 3.62 4.65 4.65 0 000 1.82 1 1 0 001.55.78 6.82 6.82 0 00.68-.41 2.27 2.27 0 01-.81 1 1 1 0 01-1.23-.06 3.74 3.74 0 004.08 1.35 4.74 4.74 0 01-3.29.3 5.78 5.78 0 005 .83 3.45 3.45 0 01-3.51 1.25 3.27 3.27 0 002.64.81 6.35 6.35 0 01-4.11-.41c.14.15.26.31.4.46a7.16 7.16 0 001.92 1.54 2.11 2.11 0 00.72.24 1.24 1.24 0 001.27-.57c.1-.15.19-.31.31-.52a1.78 1.78 0 01-.61 1.29 1.5 1.5 0 01-1.41.2 4.45 4.45 0 011 1.21 5.27 5.27 0 01.51 1.39 7.21 7.21 0 00-4-3.68c1.38 1 2.76 1.93 3 3.82a3.74 3.74 0 00-1.91-1.57 2.87 2.87 0 011 1.55 4.26 4.26 0 00-1.75-.61 3.21 3.21 0 002.9 1.78 2.71 2.71 0 01-2.11.28 3.86 3.86 0 002.67 2 5.73 5.73 0 003.31-.48 5 5 0 01-2 1.1 4.36 4.36 0 01-2 .11c-.19 0-.26 0-.2.21a8.77 8.77 0 01.32 2.39 5.55 5.55 0 01-1.08 3.72 2.44 2.44 0 01-.66.58 5.17 5.17 0 001.29-2.94 6.66 6.66 0 00-.47-3.18c-.06.37-.05.74-.1 1.1a5 5 0 01-1.49 3 4.18 4.18 0 01-2.18 1h-.11a2.76 2.76 0 001.35-.1 6 6 0 001.22-.53 6.38 6.38 0 01-2.84 1.43 6 6 0 01-3.2-.19 16.85 16.85 0 01.62 2.31 11.3 11.3 0 010 5.3 5.42 5.42 0 01-2.81 3.53.39.39 0 01-.29.08 6.67 6.67 0 001.61-1.7 7.55 7.55 0 001.21-4.78 12.44 12.44 0 00-.75-3.37.64.64 0 00-.09.31v.31a27.8 27.8 0 01-1.49 5.89c-.27.68-.69 1.29-.93 2a7.25 7.25 0 00-.86 2.58h-.1c-.03 0-.32-.24-.46-.22s-.15.27-.24.41a3.31 3.31 0 01-4.79 1.5 3.15 3.15 0 01-.5-.3c-.17-.12-.25-.07-.37.07-1.23 1.41-2.41 2.86-3.56 4.33a68.85 68.85 0 01-4.43 5.48 51 51 0 01-6.64 6 11.77 11.77 0 01-5.48 2.15l-1.56.21z" transform="translate(-.42 -.06)"/><path class="cls-1" d="M64 65.35l1.3-1.7-1.5 2.4 1.25-1.57h.05L63.59 67 65 65.61l-1.17 1.72 1.25-1.51-1.44 2.44 1-1.33-1.66 2.68.56-.68-1.18 1.6 1.49-1.44-1.37 2.41 1-1.06-1.58 2.39.93-1-1.6 2 .35-.37.07.07-1.31 1.57 1.39-1.38h.05l-1.65 1.81.06.06 1.31-1.47.11.1-1.53 2 .62-.68-1.49 2 1.36-1.43L59.01 78l1.79-1-1.92 2.2 1.48-1.2L59 79.71v.05l.89-.77-1.78 2 .71-.53-1.17 1.31.52-.38h.05c-.16.25-.32.51-.49.76a17.75 17.75 0 01-5.74 5.6 12.35 12.35 0 01-3.45 1.33 21.71 21.71 0 01-2.55.51 38.29 38.29 0 01-5.25.21c-1.1 0-2.19-.14-3.29-.17a7.37 7.37 0 01-3.83-1.26 25.48 25.48 0 01-5.24-4.59 57.05 57.05 0 01-3.88-5c-.37-.51-.75-1-1.14-1.52a13.06 13.06 0 001 1.9h-.06L21 73.81l3.24 5.86a37 37 0 01-4.23-6.94 20.18 20.18 0 001.14 2.91 3.43 3.43 0 01-.55-.64 31.77 31.77 0 01-2.72-5.93c-1.05-3-2.06-6-2.93-9a12 12 0 01-.51-4.6 6.15 6.15 0 01.25-1.4l.4 1.85-.32-3 .6 2.28L15 53l1 2.41a15.39 15.39 0 00-.5-2.19c.08.14.17.27.24.41A4.91 4.91 0 0116 54c.08.17.23.23.43.3 0-.58-.05-1.14-.08-1.7-.06-1.41-.12-2.82-.2-4.23 0-.23.11-.23.26-.26s.15.15.15.23c.07 1.58.13 3.17.2 4.76 0 .55.05 1.11.07 1.67a.44.44 0 00.22.41A5.06 5.06 0 0118 56a2.68 2.68 0 01.62 1.06 3.5 3.5 0 002.16 2.26 6 6 0 001.91.42 72.4 72.4 0 007.93.31 20 20 0 005.28-.67.27.27 0 01.12 0 13.62 13.62 0 01-1.36.59c.19.08.35 0 .5 0s-.11.06-.11.15l1-.24-.69.49.58-.24c-.1.41-.21.79-.28 1.18a5.81 5.81 0 000 2.16 2.53 2.53 0 002.27 2.17 1.88 1.88 0 00.63 0c0-.12-.11-.15-.14-.27a.71.71 0 00.6-.55c0-.12.13-.13.23-.13a2.49 2.49 0 011.21.43c.36.2.7.43 1 .62a3.48 3.48 0 002.29.22 3.94 3.94 0 001.11-.33c.21-.11.5-.27.66-.11s-.09.39-.2.62a2.12 2.12 0 00.66-.54 1.16 1.16 0 01-.41.62H46c0 .1-.12.12-.13.25a1.43 1.43 0 001-.46 2.36 2.36 0 011.35-.78 2.43 2.43 0 002-2.36A4.79 4.79 0 0049.9 61c-.16-.45-.36-.88-.55-1.32a2.48 2.48 0 00.51.41l-.22-.35c.24.07.4.23.66.22a3.35 3.35 0 01-.68-.51 2.7 2.7 0 001.13.31 7 7 0 01-1.11-.75 3 3 0 01.76.07 45.65 45.65 0 006.71.35 25.75 25.75 0 005.74-.69c.41-.1.82-.21 1.23-.3a6 6 0 01-1.77.75 3.18 3.18 0 001.26-.21 8.2 8.2 0 001.19-.53 3.31 3.31 0 01-2.17.9 1.75 1.75 0 001.41-.06c.42-.19.79-.44 1.19-.67a3.16 3.16 0 01-2.32 1.19.85.85 0 00.64 0 4.41 4.41 0 002.09-1.2 17.28 17.28 0 001.4-1.39A4.73 4.73 0 0163.51 60a5 5 0 001.55-.26 4.27 4.27 0 01-1.06.56 4.53 4.53 0 001.39-.45 4.15 4.15 0 01-1.29.66 3.56 3.56 0 002.19-.89l-1.53 1.72.92-1 .07.07-1 1.1 1.25-.97h.05l-1.62 2.21 1.09-1.25-1 1.41.67-.85h.05l-1.08 1.9 1-1.27h.06l-1.46 2.42zM32.89 42.12a6.81 6.81 0 00-1.42-.41 5.36 5.36 0 00-1.06 0 2.77 2.77 0 011.73.72 5.85 5.85 0 01-2.48-.92 1.4 1.4 0 00.41.51 4.56 4.56 0 01-2.16-.66l.26.22.27.21a4.28 4.28 0 00-1.88-.14 2.52 2.52 0 011.23.3 4.25 4.25 0 01-1.61-.14 3.63 3.63 0 00.63.42 7 7 0 00-3 .53c.16-.21.4-.27.6-.41A3.22 3.22 0 0023 43a2 2 0 01.58-.58 4.68 4.68 0 00-1.5.86 2.09 2.09 0 011.05-.87 2.7 2.7 0 00-1.48.82 1.93 1.93 0 01.75-.8 1.94 1.94 0 00-1.35 1.44c-.12-.31-.11-.41.17-1.13-.63.51-.56 1.23.19 2.07-.57-.06-1-.73-1-1.55a1.48 1.48 0 001 2c-.05-.12-.18-.17-.2-.31a2 2 0 00.86 0 2.09 2.09 0 01-.4-.38.73.73 0 01-.07-.53c.22.43.36.53.78.55a.61.61 0 01-.09-.55 1 1 0 01.44-.5c-.13.24-.39.46-.09.8 0-.34.12-.6.49-.71a2.22 2.22 0 00-.18.22.2.2 0 000 .23c.07.09.12 0 .18 0a1.5 1.5 0 01.76 0l.69.18a2.44 2.44 0 00-.6-.52 5 5 0 011.91.46 2 2 0 00-.88-.55 8.43 8.43 0 012.26.47l-.46-.3a7 7 0 003.54 0 3.15 3.15 0 01-1.07.36 3.26 3.26 0 001.87-.25 2.46 2.46 0 01-.76.4 9 9 0 012.61.24 3.62 3.62 0 00-.9-.89c.39 0 .86.31 1.33.92 0-.43-.25-.72-1.14-1.37a2.77 2.77 0 011.7 1.6c.1-.46-.13-1-.82-1.81a2.4 2.4 0 011.26 1.74 2 2 0 000-.75c.27.23.32.48.22.95.45-.19.4-.56-.19-1.51.5.29.73.75.88 1.76.31-.38.21-.75-.48-1.84a1.87 1.87 0 01.8 1.9.65.65 0 00.21-.82 3 3 0 00-.46-.8 1.56 1.56 0 01.73 1.69c.25-.08.4-.21.36-.5.27.21.34.33.53.92.13-.09.1-.24.18-.35a1.34 1.34 0 01.23.53c.14-.35.08-.55-.38-1.25A1.11 1.11 0 0137.7 46c.36-.2.4-.54.16-1.26a1.75 1.75 0 01.25 1.59c.42-.36.43-.93 0-1.6a1.14 1.14 0 01.53 1 1.78 1.78 0 01-.33.94.4.4 0 01-.36.14 2.06 2.06 0 01-1-.22 5.15 5.15 0 01-.89-.48c.17 0 .29.1.48.07l-.5-.25-.52-.25h.94a16 16 0 00-5.56-1.09l1 .14c0 .07-.1 0-.11.07l1.18.25c-.25.07-.42-.06-.63 0l.36.15h-3.48a12.92 12.92 0 00-3.85.57 2.57 2.57 0 01-.52.21 2.19 2.19 0 00-1.05.53c.11-.25.36-.36.53-.55a1.89 1.89 0 00-.79.48c.13-.43.5-.6.85-.8a1.82 1.82 0 00-1.07.55 2.1 2.1 0 00-.57.89.26.26 0 01-.28.2l-5 .2a.41.41 0 01-.33-.08l.36-.2c-.17 0-.34.13-.48 0l.2-.24H17l.28-.33c-.11 0-.15.12-.27.12l.23-.39c-.16 0-.18.22-.33.28l.18-.47c-.13 0-.11.16-.21.2-.16-.42.08-.82.06-1.28l-.25.87.1-1.27-.2.82.06-.63-.1.41v-.85l-.09.48c-.06-.42 0-.84 0-1.27l-.19 1a3.75 3.75 0 01.6-3l-.4.31a8 8 0 00.57-1.5 3.45 3.45 0 00-.1-2.39A3.85 3.85 0 0117 35a3.56 3.56 0 00-.18 1.91c.06-.48.11-1 .21-1.44a3.08 3.08 0 01.56-1.33h-.16a1.5 1.5 0 00-.64.41c-.16.15-.4.08-.54.28a6.05 6.05 0 01-.61.63 15.43 15.43 0 00-3.51 6 .78.78 0 01-.11.2 15.3 15.3 0 015.48-8.36 6 6 0 00-1.82 1.4 23.29 23.29 0 00-1.5 1.79 11.56 11.56 0 013.26-3.73A5.82 5.82 0 0015.7 34a17.53 17.53 0 00-1.41 1.57 11.17 11.17 0 013.07-3.35 8.13 8.13 0 00-2.25 1.75 4.52 4.52 0 01.57-.72c.2-.24.42-.47.63-.69l.7-.74-1.14.77c.81-.83 1.61-1.66 2.33-2.56a19.67 19.67 0 001.92-2.87 17.32 17.32 0 01-1.12 2.9 11.75 11.75 0 001.3-2.25 18.47 18.47 0 00.88-2.54A5.44 5.44 0 0024.4 30a10 10 0 01-1.58-1.54 4 4 0 01-.88-2.05 1.45 1.45 0 01.24.37 11 11 0 003.24 3.58 1.28 1.28 0 01.43 1.48 4.42 4.42 0 01-.85 1.72 11.28 11.28 0 01-1.13 1.27.76.76 0 00-.2.25 5.16 5.16 0 002.11-2.42 7 7 0 00.57-3.16 6.33 6.33 0 01-.64 3.9c-.54 1.05-1.21 1.65-2.93 2.68a4.63 4.63 0 001.22-.55 5.71 5.71 0 001.12-.85 5.46 5.46 0 001.46-2.34c.15-.44.23-.9.35-1.37.08.2.16.4.23.6A28.61 28.61 0 0030.51 38a11.63 11.63 0 003.54 3.48c.23.13.47.24.71.36h.1a18 18 0 01-6.26-7.67c.39.65.75 1.32 1.15 2a16.22 16.22 0 003.64 4.27 6.17 6.17 0 003.3 1.41 2 2 0 00.81 0 6.93 6.93 0 01-3.92-1.57A14.3 14.3 0 0130 36a31.91 31.91 0 01-2.68-6.21.12.12 0 010-.1c.27.59.52 1.19.8 1.78a19.86 19.86 0 003.45 5.15A9 9 0 0035.2 39a6.12 6.12 0 002.85.3h.33c-4.87 0-8-3.8-9.13-6.58 2 2.89 4.58 4.71 8.18 4.79A10.75 10.75 0 0129 30.66a13 13 0 003.82 4.54 6.85 6.85 0 001.19.72 9.92 9.92 0 01-3.69-4.41 10.94 10.94 0 01-.89-4 7.07 7.07 0 002.83 2.78c-.3-.27-.61-.53-.91-.81a5.8 5.8 0 01-.81-.91 3.1 3.1 0 01-.58-1.11c1.13 1 2.21 2 3.9 1.43a6.18 6.18 0 002.54 3.91c-1.16-1.16-2.14-2.39-1.72-4.26a17.25 17.25 0 013.58 6.62l-.36-1.67a9.74 9.74 0 007.06 3c-.57-.14-1.14-.25-1.7-.41a9.91 9.91 0 01-4.11-2.15 4.19 4.19 0 01-1.25-2.11 9.5 9.5 0 00.91 1.18 8.15 8.15 0 004.74 2.48 8.41 8.41 0 001.66.16.34.34 0 01.28.17c.56.66 1.11 1.34 1.63 2a.81.81 0 00.19.18 25.58 25.58 0 00-1.67-2.37 7.63 7.63 0 00.89 0 1 1 0 00-.26 0 1.19 1.19 0 01-1.2-.61 24.31 24.31 0 00-2.42-2.67l.44-.22c-.43.2-.71 0-1-.31a13.24 13.24 0 00-3-2.15.25.25 0 01-.1-.08c.62.12 1.22.33 1.83.5a6.37 6.37 0 01-1-.68l.85.21a16 16 0 001.94.3 1.4 1.4 0 01.95.47 12.21 12.21 0 012 2.51A5.55 5.55 0 0047 34.51a10.78 10.78 0 002.06 1.25 6.09 6.09 0 01-2.27-1 10.89 10.89 0 004 2.12 1.56 1.56 0 01-.8-.08 7.64 7.64 0 01-.8-.29c-.26-.1-.51-.23-.66-.3.3.32.65.74 1.05 1.12a19.28 19.28 0 002.53 2.06 5.13 5.13 0 00.65.36.81.81 0 01.42 1.25v-.4a1.74 1.74 0 01-.62 1.18 2.31 2.31 0 00.36-.89 2.3 2.3 0 01-1.24 1.16 3.66 3.66 0 00.51-.46 12.54 12.54 0 00-3.34 1.82 2.45 2.45 0 01.65-.64c.23-.17.47-.31.69-.48a4.65 4.65 0 00-2.29 2.09c0-.44.38-1.07 1.17-1.86a1.86 1.86 0 00-.93.75 4.77 4.77 0 00-.62 1c-.17.38-.29.78-.44 1.16a7.08 7.08 0 01.35-2.38 5.36 5.36 0 00-.59 2.72 8.11 8.11 0 01-.11-2.2 3.87 3.87 0 00-.21 1.76 3.59 3.59 0 00-.72-1.2 6 6 0 01.62 1.94 3.56 3.56 0 00-.86-1.07 5.42 5.42 0 01.6 1.11 1.87 1.87 0 01.11 1.07.4.4 0 01-.27.31 10.65 10.65 0 01-5.67.5c-.81-.11-1.6-.3-2.43-.36a3.29 3.29 0 001.57-1.25 2 2 0 00.11-1.92 2.31 2.31 0 01-.39 1.72A2.63 2.63 0 0038 43.76a5.29 5.29 0 00-1-.72 7.51 7.51 0 011.59 1.69 8.46 8.46 0 00-3.7-2.44 9.1 9.1 0 011.72 1.25c-.34-.22-.67-.45-1-.66a11.7 11.7 0 00-1.12-.56 8.07 8.07 0 00-1.17-.4 10.3 10.3 0 012.15 1.25 17 17 0 00-2.69-1.24l.21.18z" transform="translate(-.42 -.06)"/><path class="cls-1" d="M26.23 48.26a8 8 0 00-2.69.84l.7-.19-.37.2 1.15-.37c-.27.26-.6.42-.85.69.38-.14.72-.37 1.1-.54l-1 1.13c.3-.17.58-.34.88-.49s.31-.16.38.18a3.11 3.11 0 002.23 2.38 5.26 5.26 0 01-1.33-1A3.94 3.94 0 0028 52a5.91 5.91 0 01-1-.65 2.09 2.09 0 00.82.27l-.75-.5a4 4 0 001.07.23 3.64 3.64 0 01-2-1.79 2 2 0 011.13.43 5 5 0 003 1 7.78 7.78 0 003-.51c.25-.09.3-.06.25.21a1.32 1.32 0 01-.45.71 4.27 4.27 0 01-1.85.87c-.37.1-.74.17-1.16.26a6 6 0 001.28-.05 6.29 6.29 0 003.55-1.6 1 1 0 01.58-.3c.17 0 .14-.15.11-.25a2.26 2.26 0 00-.58-.93c-.21-.2-.39-.41-.6-.64a2 2 0 011.76 1.15c-.05-.4-.12-.52-.85-1.29a8.56 8.56 0 012.67.7A2.29 2.29 0 0139.24 52a18.35 18.35 0 01-1.49 4.45c-.22.42-.48.81-.71 1.21a2.67 2.67 0 01-1.91 1.21 24.14 24.14 0 01-3.59.37 63.25 63.25 0 01-6.46-.08 16.35 16.35 0 01-3.53-.57A3.11 3.11 0 0119.23 56a22.86 22.86 0 01-.38-5v-.4a1.34 1.34 0 01.77-1.32 7.34 7.34 0 012.38-.83 15.67 15.67 0 012.56-.18c.54-.02 1.09-.01 1.67-.01zM59 50.11a4.2 4.2 0 01-2.69 1.14c.75.27 1.59 0 2.73-.81a1 1 0 01-.4.67 3.53 3.53 0 01-2.15.64h-.27a3.34 3.34 0 002.7-.67 1.5 1.5 0 01-.74.64 5.6 5.6 0 01-2.94.42l-.71-.08a4.56 4.56 0 002.24.37 3.59 3.59 0 002.2-.77 4.35 4.35 0 001.33-1.88A2.53 2.53 0 0158.91 52a2.75 2.75 0 001.85-1.89 2.54 2.54 0 01-1.46 2c.59 0 1.18-.57 2.06-2.09A3.14 3.14 0 0160 52.11c1.16-.27 1.6-1.18 2-2.18a3.14 3.14 0 01-.92 2 2.33 2.33 0 001.46-1.74 2.17 2.17 0 01-.9 1.9 1.75 1.75 0 001.46-1.48 1.56 1.56 0 01-.71 1.51 1.9 1.9 0 001.35-.74 1.09 1.09 0 01-.36.77 1.66 1.66 0 01-.82.39 1.47 1.47 0 001.74-1.18 2 2 0 01-.94 1.6 1.54 1.54 0 00.59-.26c.07.06 0 .11 0 .16-.3.71-.65 1.4-.9 2.13-.17.52-.44 1-.61 1.52L64 54.37a6.4 6.4 0 01-2.28 3 2.76 2.76 0 001-.34 3.09 3.09 0 01-1.55.8 6.77 6.77 0 01-1.78.17c1.91.46 4.66-.07 5.87-2.29l-1.47 1.18.66-1-.39.46.33-.9c-.14 0-.15.15-.3.17l.71-1.21-.56.67.38-.62c.21-.35.43-.69.63-1.05.08-.14.15-.13.29-.07a.46.46 0 01.32.58c-.08.41-.09.83-.13 1.25.12 0 .09-.13.18-.17 0 .37-.19.69-.26 1a3.57 3.57 0 00.47-1.35 26.1 26.1 0 00.23-3.07v-1.83a3 3 0 00-.49-1.39 3.16 3.16 0 00-.16-.32 1 1 0 01.56.5 3.7 3.7 0 01.4 1.45 20.32 20.32 0 01-.13 4.27 5.63 5.63 0 01-.93 2.63A3 3 0 0163.89 58a.43.43 0 01-.28 0 4.63 4.63 0 001.1-.8c-.09-.05-.13 0-.18.06a7.31 7.31 0 01-2.91.93 35.27 35.27 0 01-3.56.1c-2.15.06-4.3 0-6.45-.13a4.24 4.24 0 01-3.52-2 12.88 12.88 0 01-2-3.92A3.31 3.31 0 0146 51a2.71 2.71 0 012.31-2.43c1.55-.3 3.1-.6 4.65-.83.89-.13 1.81-.1 2.71-.15 1.35-.09 2.71 0 4.06 0a26.12 26.12 0 014 .32.64.64 0 01.27.12l-1.51-.09c-2.55-.17-5.11-.22-7.67-.18a22.57 22.57 0 00-2.6.19.9.9 0 00-.22.05 4.48 4.48 0 00-1.21.85 1 1 0 01-1 .29c-.46-.07-.68.09-.68.56a3.19 3.19 0 00.94 2.22 4.62 4.62 0 001.21 1c-.33-.32-.67-.62-1-1a3 3 0 01-.64-1c-.17-.47 0-.72.52-.66a1.67 1.67 0 01.53.14 8.8 8.8 0 008.15-.3L59 50zM48.29 61.12a5.33 5.33 0 000-1.78 3.39 3.39 0 01.44.65 4.84 4.84 0 01.68 3.24 1.48 1.48 0 01-.67 1.14c-.39.23-.66.13-.77-.3s-.38-.53-.69-.71a1.75 1.75 0 00.72-1.18 2.67 2.67 0 01-1.48 1.16c0 .11.18 0 .23.14-.18 0-.37.07-.55.12a4 4 0 00-1.89 1.09 2 2 0 01-1.43.59 5.32 5.32 0 01-3-.88 3 3 0 00-1.73-.4 1 1 0 00-.77.47c-.14.22-.3.24-.49.05s-.08-.2-.17 0-.09-.08-.13-.14a3.2 3.2 0 01-.45-2.38 7.58 7.58 0 011.56-3.36 8.69 8.69 0 00-.2 2.72c.15-.61.36-1.2.53-1.81l-.15.25.61-1.62c-.14.1-.15.26-.32.35l.36-.84c-.16.12-.21.27-.4.36a16.06 16.06 0 00.77-1.64c.42-1.07.84-2.14 1.28-3.2a4.73 4.73 0 01.54-1 2.25 2.25 0 012.36-1 2.3 2.3 0 012.06 1.7 25.08 25.08 0 001.28 3c.23.45.57.85.8 1.31a9.63 9.63 0 011 3.43c.03.14.05.27.07.47zM52.4 6.13c5 1.24 8.52 4.41 11 8.83a2.6 2.6 0 00-.23-.78 13.24 13.24 0 00-5.77-6.56 19.89 19.89 0 00-7.36-2.45c-.72-.11-1.44-.19-2.17-.23a.24.24 0 01-.2-.05c1-.34 4.15 0 6.11.57a19.76 19.76 0 015.52 2.78 4.33 4.33 0 00-.85-.86 13.23 13.23 0 00-5.26-2.58 21.62 21.62 0 00-6.85-.54h-1a18.12 18.12 0 0110.11.88 1.83 1.83 0 00-.5-.31 15 15 0 00-4.35-1.31 26.59 26.59 0 00-6.49-.17c-.4 0-.79.07-1.19.09a7.21 7.21 0 011.65-.39A18.85 18.85 0 0150.08 3a21.54 21.54 0 019.84 4.06 29.85 29.85 0 015.59 5.47.34.34 0 00.16.12l-.48-.82c.63.7 1.23 1.42 1.87 2.1a23.48 23.48 0 002 2 13.07 13.07 0 002.35 1.67.65.65 0 01-.42 0 6.55 6.55 0 01-2.28-1.37 17 17 0 01-1.38-1.3s-.07-.11-.17-.12a27.58 27.58 0 001.52 2.65A29.29 29.29 0 0072.32 22a13 13 0 004.29 3 .72.72 0 01.16.09 4.34 4.34 0 01-.87-.24 12.78 12.78 0 01-4.16-2.71 20.9 20.9 0 01-4.15-5.72l-.1-.19a12.77 12.77 0 009.68 9.52 5.64 5.64 0 01-1.17-.11 11 11 0 01-4.63-2.32 19.68 19.68 0 01-5.07-6.59c-.28-.55-.52-1.13-.78-1.69 0-.07 0-.15-.14-.21a5.28 5.28 0 00.26.93 17.56 17.56 0 003.45 6.15 12.19 12.19 0 008.39 4.24.64.64 0 01.4.09 11.55 11.55 0 01-9.75-4 10.49 10.49 0 007.49 4.32c0 .11-.1.08-.16.09a7 7 0 01-2.65-.3A11 11 0 0168 23.22a18.69 18.69 0 01-2.34-3.12.88.88 0 00-.22-.28 11.47 11.47 0 0010.84 7.44 3.45 3.45 0 01-1.13.25A8.67 8.67 0 0168 25.1a15.08 15.08 0 01-3.64-5.72 20.71 20.71 0 01-.8-2.38 26.06 26.06 0 001.5 3 22.17 22.17 0 00-4.75-8.36 20.7 20.7 0 00-7.91-5.51zM67.21 33.17L66 32.36a14.41 14.41 0 01-3-3 1.92 1.92 0 01-.18-.31c3.68 4.21 8.22 6.12 13.84 5.19C72 35.88 65.41 35.55 60 29c.2.69 2.69 3.21 4.2 4.22a13.09 13.09 0 005.57 2.16 14.5 14.5 0 006-.42 6.53 6.53 0 01-1.89.79 13.15 13.15 0 01-7.37-.61 22 22 0 01-3.88-1.7.23.23 0 00-.19-.06 4.7 4.7 0 001.36 1 15 15 0 003.9 1.37 30.4 30.4 0 003.56.6.5.5 0 01.28.09 19.87 19.87 0 01-2.19 0 13.54 13.54 0 01-8-3.35 16.74 16.74 0 01-3.9-5.24 19.3 19.3 0 01-1.22-3.11.42.42 0 010-.16 21.94 21.94 0 001 2.08 15 15 0 001.28 2A10 10 0 0060 30.38 35.28 35.28 0 0157.83 26q-1-2.27-1.77-4.57a62.58 62.58 0 003.55 5.39C59.5 26 57.33 22 56 20.15a27 27 0 00-5.27-5.47c.09 0 .14 0 .19.05a13.68 13.68 0 013.23 2.36 43.6 43.6 0 014.29 4.72.2.2 0 00.17.13 26.93 26.93 0 00-9.82-9.44c.79.07 4.6 2.62 6.28 4.21a23.46 23.46 0 014.66 6l-.14-1.11a12.59 12.59 0 003.63 5.49l-1.39-2 .22.26a21.89 21.89 0 007.88 6.34 17.09 17.09 0 006.24 1.61c.28 0 .56 0 .85.06a4.38 4.38 0 01-1.13.19 12.41 12.41 0 01-5.54-1 25.74 25.74 0 01-6.35-3.8l-.24-.19c.38 1 3.49 3.26 5.51 4.09a16.83 16.83 0 006.76 1.28 9.55 9.55 0 01-2.2.09 14.41 14.41 0 01-7.51-2.6 24.1 24.1 0 01-7.1-7.73.62.62 0 00-.22-.26c.17.41.31.77.47 1.12a18.33 18.33 0 005.2 7A16 16 0 0067 33.06a.44.44 0 00.27.11 1.64 1.64 0 00.29.16zM41.91 17.05a3.74 3.74 0 00.59 1.05 12.9 12.9 0 003.12 2.78c.34.23.68.44 1.05.67-2.19-.48-5-3.4-5.47-5.63.21.17.3.4.52.52a7.66 7.66 0 01-.93-1.74 12.18 12.18 0 006.82 5.11c-2.27-1.1-4.49-2.27-5.91-4.49a9.24 9.24 0 004.52 3.15 9.51 9.51 0 01-4.58-4 15.58 15.58 0 006.5 4.43 24.93 24.93 0 01-5.75-4.24c2.38 1.71 4.85 3.27 7.34 4.81a5.06 5.06 0 00-.85-.88l-.92-.8L47 17l-1-.78c1.16.16 5.09 3.67 6.6 5.89a18.4 18.4 0 013.1 8.27.75.75 0 01-.1-.38l-.09-.36a19.61 19.61 0 00-2.51-6.1 10.47 10.47 0 00-4.08-3.76c-.25-.12-.52-.22-.78-.32a.88.88 0 00-.29-.06 14.53 14.53 0 015.07 5 16.24 16.24 0 012.29 6.73c-.09-.29-.19-.58-.28-.88a24.72 24.72 0 00-3.35-7A8.53 8.53 0 0049 20.8l-.45-.22a.58.58 0 00-.17 0c3.71 2.66 5.31 6.35 5.61 10.71-.23-1.06-.47-2.12-.79-3.16a13.83 13.83 0 00-2.47-4.79 5.53 5.53 0 00-1.28-1.18 14.6 14.6 0 014 8.81c-.16-.59-.3-1.18-.46-1.76A17.12 17.12 0 0050.67 24a8.17 8.17 0 00-.9-1.12 3.8 3.8 0 00-1.25-.88 16.56 16.56 0 01-5.28-3.5 14.89 14.89 0 01-1.33-1.45zM67.15 65.54a10.59 10.59 0 01-1.83 2.74 21.37 21.37 0 002.45-4.72l-.25.45a17.29 17.29 0 011.91-6.15 12.05 12.05 0 00-.79 4c.19-.57.36-1.14.56-1.7s.42-1.17.67-1.73a6.93 6.93 0 01.9-1.59 17.75 17.75 0 01-.53 2.16l.51-.89-.27.67.2-.35-.42 2A73.62 73.62 0 0168 69.22c-.35 1-.77 2-1.22 3.06A9.67 9.67 0 0165 74.74q-1.29 1.47-2.61 2.94a.72.72 0 01-.28.23l1.44-2.8-1.41 2L62 77l2.58-4.58h-.05l-2 2.88h-.05l3.41-5.75-2 2.65h-.05c.85-1.38 1.71-2.75 2.57-4.13l-.4.5a26.34 26.34 0 001.14-3.03z" transform="translate(-.42 -.06)"/><path class="cls-1" d="M42.41 5.05A19.42 19.42 0 0048 7.73a35.9 35.9 0 006.13 1.35c-1.57 0-7.86-1-11.25-3.2a11.59 11.59 0 003 1.73 23.78 23.78 0 003.34 1.11 4.58 4.58 0 01-.89-.14 24.67 24.67 0 01-5.23-1.66c-1.24-.58-2.48-1.16-3.77-1.62a6.59 6.59 0 00-1.8-.44A7.4 7.4 0 0141 6.8a17.42 17.42 0 00-6.84-2.42 22.88 22.88 0 014.91 2.09A27.89 27.89 0 0034.89 5a12.37 12.37 0 00-4.37-.42l.48-.2c.15 0 .3-.08.46-.12a4.26 4.26 0 01.49-.1 15.66 15.66 0 016.53.44 21.14 21.14 0 012.17.71.43.43 0 00.23 0L40 4.92a16.11 16.11 0 00-5.33-1.36A7.61 7.61 0 0029.46 5s-.05 0-.13.06a5.66 5.66 0 011.18-.94 8.78 8.78 0 00-1.62.6 4.8 4.8 0 011.35-.78 11.87 11.87 0 014.4-.94 25.55 25.55 0 018 1.22c1.12.33 2.21.72 3.29 1.14a.87.87 0 01.19.1c-1.36-.39-2.7-.85-4.07-1.19C45.49 5.49 49 6.63 52.42 7.76c-2.7-.66-5.36-1.43-8-2.31a58.17 58.17 0 008.17 2.86 39.16 39.16 0 01-10.18-3.26zM48.36 10.68a8.66 8.66 0 013.1.59 12.63 12.63 0 012.84 1.53 1.6 1.6 0 00-.48-.71A5.93 5.93 0 0051.61 11a18.32 18.32 0 00-3.52-.64c-.9-.08-1.8-.12-2.71-.13a11.92 11.92 0 013.21-.23 10.21 10.21 0 013.15.67.72.72 0 00-.41-.37 7.32 7.32 0 00-2.2-.59c-1-.16-2-.23-3-.3a8.91 8.91 0 011.46 0 18.18 18.18 0 015.75 1 14.08 14.08 0 018.24 7.29.5.5 0 010 .13 16.78 16.78 0 00-9.93-7.71c.51.21 1 .43 1.52.67a17.48 17.48 0 017.07 5.76 12.45 12.45 0 012.21 6 6.71 6.71 0 010 1.1c-.56-3-1.42-5.87-3.6-8.15h-.07l.6 1A11.94 11.94 0 0161 20.29a4 4 0 010 1.87c-.41-4.2-2.71-7.2-5.91-9.64 2.3 2.26 4.27 4.71 4.63 8.08-1.94-5.44-5.81-8.6-11.36-9.92zM72.05 41.93a13.68 13.68 0 01-5.56-2.57 4 4 0 00.84.85A12.82 12.82 0 0071 42.12a19.81 19.81 0 002 .61 6.7 6.7 0 01-1.55-.18 13.35 13.35 0 01-1.45-.39c-.51-.16-1-.33-1.51-.51L67 41.06c-.49-.21-1-.43-1.47-.62a3 3 0 00.77.55 20.8 20.8 0 003.7 1.56l1.58.51c-2.71.19-7.6-2.67-9.39-5.46a8.43 8.43 0 003.35 2 9.77 9.77 0 01-3.74-4.33A11.69 11.69 0 0065.55 39a15.32 15.32 0 01-2.67-3.68 15.58 15.58 0 002.85 2.83l-1.34-1.81a43.68 43.68 0 008.2 4.78 11 11 0 01-3-.88 23 23 0 01-2.76-1.49 19.13 19.13 0 005.22 3.18zM77.24 45.48c-.15 1.69-.16 3.43-1.41 4.8a8.24 8.24 0 00.78-3.91 7.86 7.86 0 00-1.22-3.82c1.9.63 3.5 4 3.21 6.61a9.8 9.8 0 00-.88-5.31c2 2.91 1.76 5.85.11 8.8a3.08 3.08 0 00.83-1.19c.23-.45.44-.91.66-1.36a6 6 0 01-1.18 3.13 3.77 3.77 0 01-2.72 1.39 5.35 5.35 0 01-1.49-.07c0-.07.09-.06.13-.06a3 3 0 002.85-1.78 6.51 6.51 0 00.72-3 5.52 5.52 0 01-3.22 4.1c.24-.17.51-.32.76-.51a5.54 5.54 0 001.89-3.07 12.05 12.05 0 00.18-4.75z" transform="translate(-.42 -.06)"/><path class="cls-1" d="M74.8 56.5a4.33 4.33 0 002.49 1.85 8.41 8.41 0 002.64.4h.24l.06.05a5.56 5.56 0 01-3.13 0 6.75 6.75 0 01-3.39-2.53 8.92 8.92 0 01-1.09-1.86c.4.22.75.42 1.11.59a5.51 5.51 0 002.89.65 4.16 4.16 0 003-1.75 7.78 7.78 0 001.14-2.15c0-.05 0-.12.11-.16a6.21 6.21 0 01-1.26 3.67 4.14 4.14 0 001.64-2.05 7.3 7.3 0 00.35-3.56c0-.29-.09-.57-.12-.86a9.32 9.32 0 01.52 2.58 5.45 5.45 0 01-.29 2.23 4.58 4.58 0 01-2.81 2.68 8.75 8.75 0 01-1.88.46 4.14 4.14 0 003.47-.56 5.77 5.77 0 002.08-2.94 4.91 4.91 0 01-.39 1.55 3.88 3.88 0 01-4.25 2.52 10.17 10.17 0 01-3-.77zM7.46 38.28a3.57 3.57 0 01.62-2.1 10.94 10.94 0 012.58-2.59c.45-.35.94-.66 1.41-1a10.2 10.2 0 00-3 2 14 14 0 00-2.27 2.82c.67-1.92 2.2-3.18 3.71-4.41a9.9 9.9 0 00-2.58 2.09 15.71 15.71 0 00-2 2.74 9.66 9.66 0 012.15-3.6 7.73 7.73 0 00-1.31 1.17 10.82 10.82 0 00-1.13 1.4c-.34.49-.65 1-1 1.51a12.07 12.07 0 013.68-5.17 13.87 13.87 0 016.7-3A7.6 7.6 0 0112.58 32a2 2 0 00.83-.24 14.86 14.86 0 002.9-2c.2-.16.4-.34.62-.49a3.82 3.82 0 01-.7.9 17.69 17.69 0 01-4.39 3.35 9.64 9.64 0 00-3.55 3.1 6.48 6.48 0 00-.83 1.66zM13.52 58.84c-.29 1-1.76 1.82-3.19 1.77a7.07 7.07 0 002.47.1c.12 0 .28-.13.33-.08a.87.87 0 01.19.37 13.58 13.58 0 011 5c0 .86-.07 1.72 0 2.58a3.36 3.36 0 001.49 2.69l.08.08a1.17 1.17 0 01-.48-.21 4.12 4.12 0 01-1.93-3 7.66 7.66 0 01.13-2.48 4.16 4.16 0 00-.18-2.09v.13c0 .6-.13.71-.72.57a3.21 3.21 0 01-1.63-1 7.58 7.58 0 01-1.7-3 4.42 4.42 0 004.14-1.43zM33.81 21.79a24.64 24.64 0 00-.81-3.05 12.26 12.26 0 00-2.63-4.42 7.83 7.83 0 00-5.64-2.46 13.32 13.32 0 00-5 1l-.28.09c3.55-3.13 8.52-3.73 12.39-.72a11.12 11.12 0 00-8.75-1 14.09 14.09 0 012.43-.12 8.49 8.49 0 015.28 1.79 7.17 7.17 0 012.2 3.33 13 13 0 00-.94-1.5 9.92 9.92 0 00-1.2-1.31 7.26 7.26 0 00-1.48-1 7.54 7.54 0 00-3.43-.94 7.76 7.76 0 00-1.74.07 9.48 9.48 0 016.71 2.61 9 9 0 012.25 3.8 14.64 14.64 0 01.65 3.6zM27.65 28.61c0-1.65.11-3.3 0-5a10.22 10.22 0 00-.75 3.21 8 8 0 00.14 3.3c-.21 0-.26-.05-.35-.28a4.4 4.4 0 01-.23-1.39 24.88 24.88 0 01.32-4.39.65.65 0 000-.24 10.83 10.83 0 00-.7 4.67.9.9 0 01-.27-.33 5.79 5.79 0 01-.7-2.4 15.88 15.88 0 01.89-6.37.1.1 0 01.09-.08 26.6 26.6 0 00-.6 5.1 7.63 7.63 0 001.19-3.67 7.55 7.55 0 00-.77-3.74A7.37 7.37 0 0127 22.72c.32-.41.45-1.1.53-2.8.76 1.48.84 6.86.12 8.69zM61.87 40.07a4 4 0 01-1.29-2.34 8 8 0 002.52 2.51 9.24 9.24 0 01-2.45-3.62c.16.26.32.51.49.76a12.81 12.81 0 004 3.67 25 25 0 006.73 2.88.88.88 0 01.2.09 6.35 6.35 0 01-1.3-.17 51.39 51.39 0 01-7.36-2.39 1.28 1.28 0 00-.33-.11 3.49 3.49 0 00.76.51 20.75 20.75 0 004.32 1.53c1 .27 2.06.51 3.09.76-.61-.08-1.21-.14-1.82-.23a18.74 18.74 0 01-5.09-1.33 8.69 8.69 0 01-3.41-2.43 5.2 5.2 0 01-.79-1.37.2.2 0 010-.17 4.28 4.28 0 001.73 1.45zM61.68 6.83A22.18 22.18 0 0045.25 2a22.34 22.34 0 0118.34 7.32 22.92 22.92 0 00-21.26-6.4 10.12 10.12 0 011.09-.4 9.37 9.37 0 01-2.05 0l.6-.07a9 9 0 001.12-.34A16.26 16.26 0 0147 1.49a19.77 19.77 0 015.2.47 21.08 21.08 0 015.1 1.89 23.36 23.36 0 014.24 2.86zM46.22 30.52a9.19 9.19 0 01-2.38-1 14.87 14.87 0 01-4-3.45A23 23 0 0136.55 21a.38.38 0 01-.08-.23c.11 0 .11.12.15.18a20.62 20.62 0 002.23 3.46 5.24 5.24 0 001.22 1.13 1.3 1.3 0 00.53.21 11.46 11.46 0 01-2.8-4 15.26 15.26 0 0011.28 7.6 6.89 6.89 0 01-2 0 10.67 10.67 0 01-2-.51 11.12 11.12 0 01-1.85-.86 12 12 0 01-1.73-1.21 7.75 7.75 0 002.44 1.83 14.12 14.12 0 002.82 1.07 17.68 17.68 0 003.08.5 12.12 12.12 0 01-7.57-2 4.8 4.8 0 00.91.72l1 .61 1 .59z" transform="translate(-.42 -.06)"/><path class="cls-1" d="M21.32 13.2a9.79 9.79 0 012.1.33 7.85 7.85 0 014.45 2.86 8 8 0 011.46 4.05 15.61 15.61 0 01-.16 3.8h-.07v-1.39a15.93 15.93 0 00-.51-3.57c0-.09 0-.21-.17-.22s-.28 0-.21.24a15.45 15.45 0 01.46 5.5c-.05.6-.12 1.2-.22 1.79V26a20.59 20.59 0 00-.66-6.63 9.26 9.26 0 00-2.42-4.27 7 7 0 00-3.92-1.86.12.12 0 01-.13-.04zM33.44 12.24l-.4-.52a7.39 7.39 0 00-6.64-2.86 12.49 12.49 0 00-4.93 1.56c-1 .53-1.91 1.14-2.86 1.76.12-.13.24-.26.37-.38s.25-.25.38-.37A17.91 17.91 0 0124.49 8a7.79 7.79 0 014.59-.6 6.62 6.62 0 013.61 2.05 6.27 6.27 0 01.94 1.17 12.07 12.07 0 00-1.33-1.24A7.41 7.41 0 0025.83 8a12.17 12.17 0 00-3.73 1.67.24.24 0 00-.12.14l.32-.16a11.67 11.67 0 014.21-1.22 6.94 6.94 0 016.9 3.68.84.84 0 01.03.13zM66.81 37a41.42 41.42 0 008.28 3.53 23.66 23.66 0 00-2.67-2.12c.25.14.5.26.74.4a20.76 20.76 0 014.54 3.3 8.32 8.32 0 012.52 4.32 4.35 4.35 0 01-.22 2.44c0-.4 0-.79.06-1.18A7.19 7.19 0 0075.3 41c-.19-.07-.47-.19-.59 0s.19.3.32.43a8.23 8.23 0 001.91 1.29l.19.09c-1.13.01-8.41-4.09-10.32-5.81zM50.08 44.33a6.79 6.79 0 00-.77.93 14.18 14.18 0 013.59-1.67c-.11.16-.3.16-.39.35a16.6 16.6 0 002.05-.61c-.17.22 0 .21.11.19a8.85 8.85 0 001.15-.31l.21-.07c.3-.09.55-.12.77.22a5.34 5.34 0 00.93.91c.06 0 .14.08.16.2-.46 0-.91-.08-1.37-.1a16.27 16.27 0 00-4.12.25 4.48 4.48 0 00-3.12 2.19c-.05.09-.09.15-.21.15a2.79 2.79 0 01-1-.17c-.08 0-.18 0-.12-.18a4 4 0 012.13-2.28zM37.7 30.7a4.31 4.31 0 002.42 1.8 3.9 3.9 0 001.89 0 .34.34 0 01.36.07 36.23 36.23 0 012.79 2.89l.06.09c-2.88.04-6.68-2.38-7.52-4.85zM32.76 13.3A22.37 22.37 0 0042.81 22a8.52 8.52 0 01-1.32-.44 19.52 19.52 0 01-4.22-2.33c-.15-.12-.15-.12-.4-.13a53.7 53.7 0 005 4.18 16.87 16.87 0 01-5.5-4.09 18.37 18.37 0 01-3.61-5.89zM15.05 31.52a17.17 17.17 0 00-3.68 4.33 8.59 8.59 0 013.31-2.2A14.69 14.69 0 0010.25 38a5.76 5.76 0 012.59-1.74 12.78 12.78 0 00-2 1.61 10.78 10.78 0 00-1.6 2c-.24-.52.32-2 1.59-4.09a10 10 0 00-1.54 1.75 21.15 21.15 0 00-1.25 2 1.44 1.44 0 01.15-.64 9.86 9.86 0 012-3.23A27.59 27.59 0 0115 31.57z" transform="translate(-.42 -.06)"/><path class="cls-1" d="M22.29 12.48a9.74 9.74 0 016.49 1.68 6.44 6.44 0 012.42 4.21 13.45 13.45 0 01-.06 4.34l-.05.09c0-.54-.05-1.05-.11-1.56a11.56 11.56 0 00-1.67-5.18 7.38 7.38 0 00-4-3.07 9.61 9.61 0 00-2.71-.45.43.43 0 01-.31-.06zM56.26 26.58a36.26 36.26 0 00-3.76-6.86A36.63 36.63 0 0154.75 25a33.09 33.09 0 00-2.83-5.16 32.3 32.3 0 00-3.7-4.62 1 1 0 01.42.15 11.44 11.44 0 014.07 3.81 28.45 28.45 0 013.53 7.35s.01.02.02.05zM55.39 37.55A9.87 9.87 0 0056.83 42a3.55 3.55 0 01-.66-.84 12.06 12.06 0 01-1.38-3.92 27 27 0 01-.4-5.87 23 23 0 001.15 5.11 17.93 17.93 0 01.73-6.48c0 .31-.09.61-.13.92a21.41 21.41 0 00-.09 6.14 12.52 12.52 0 001.5 4.6 10.86 10.86 0 01-2.16-4.11zM50.06 46.91a5.78 5.78 0 012.13-1.55 6.62 6.62 0 012.4-.51 10.61 10.61 0 013.41.25 3.46 3.46 0 011.35.72 5.81 5.81 0 00-1.63-.55 7.46 7.46 0 011.45 1.3 13.63 13.63 0 00-1.57-.8l.57.51c-.34-.11-.68-.23-1-.32a6.48 6.48 0 00-4.8.63 1 1 0 01-.4.12zM17.6 48.35c0-.25.13-.33.34-.34l6.1-.44c1.7-.11 3.4-.08 5.1 0 2.55.06 5.1.17 7.64.39 1 .09 1.95.28 2.93.37l3.81.34c0 .17-.08.23-.25.25a16.14 16.14 0 01-3.47-.13c-1.2-.12-2.37-.43-3.56-.57a44.85 44.85 0 00-4.48-.26c-1.93 0-3.85-.05-5.77 0-1.65 0-3.3 0-4.94.14-1 .09-1.94.22-2.91.3zM12 24.1c-.37.3-.73.58-1.07.89a16.76 16.76 0 00-2.78 3.55 33.72 33.72 0 00-2.94 6.15l-.06.18a15.81 15.81 0 011.75-5 32.42 32.42 0 012.9-4.4 15.22 15.22 0 00-4.07 6 .78.78 0 01.09-.47 16.68 16.68 0 012.32-4.64 6 6 0 012.44-2.09A2.55 2.55 0 0112 24.1zM13.13 56.46a4.06 4.06 0 01-1.15 1 1.69 1.69 0 01-2.19-.4 4.61 4.61 0 01-.94-1.52c0-.06-.06-.12 0-.14a3.17 3.17 0 001.15-.64c.12-.08.22-.16.25.08s.23.37.48.54a2 2 0 01-.38-1.11A2 2 0 0012 55.48a3.39 3.39 0 002-.64 2.43 2.43 0 01-1.39 1.35 3.22 3.22 0 01-2 0 2.11 2.11 0 002.52.27zM23.56 18.54c-.51 3.55-.3 7 1.76 10.08a13.61 13.61 0 01-2.5-6 9.27 9.27 0 00.57 3.54 10.4 10.4 0 001.82 3.09c-1.16-.51-2.66-3.18-2.84-5a10 10 0 011.19-5.71z" transform="translate(-.42 -.06)"/><path class="cls-1" d="M12.35 55a2 2 0 00.83-1.32c-.37.58-.64 1.2-1.4 1.17a1.63 1.63 0 01-1.16-.77A3.64 3.64 0 0013 50.91a8.25 8.25 0 000-2.22 9.4 9.4 0 01.53 1.71 8.65 8.65 0 01.3 3.08 2 2 0 01-.47 1.13 1.19 1.19 0 01-1.01.39zM38.89 27.07A10.37 10.37 0 0134.83 22a9.58 9.58 0 003.06 5 8.21 8.21 0 01-3.21-4 10.72 10.72 0 01-.68-5.14 18.41 18.41 0 004.89 9.21zM50.66 26.72a28.77 28.77 0 013.19 9.39 13.79 13.79 0 010 4.35 36.83 36.83 0 00-1.08-7.35c.13 1 .29 2 .4 3a13.25 13.25 0 01.13 3c-.16-1.39-.33-2.78-.56-4.17s-.53-2.8-.88-4.18-.73-2.7-1.2-4.04zM50 28.4a10.36 10.36 0 00-2.48-4.86 4.76 4.76 0 00-1.09-.9A8.89 8.89 0 0149 28.57a13.75 13.75 0 00-2-4.46 14.22 14.22 0 00-3.43-3.49 11.69 11.69 0 011.69.77A10.7 10.7 0 0149 24.66a5.89 5.89 0 011 3.74zM34.45 46.68c-.06.06-.13 0-.2 0H34l.64.41a1.34 1.34 0 01-1 0 5.63 5.63 0 00-3.43-.73 8.23 8.23 0 00-2.85.66.9.9 0 01-.36 0c-.73 0-1.45-.12-2.19-.11a11.1 11.1 0 014.81-1.26 10.33 10.33 0 014.83 1.03zM4.46 51.91c-2.37-.93-2.9-3-1.74-5.35a3.84 3.84 0 00-.18 2.9c0-.29.06-.58.12-.86A5.52 5.52 0 015.15 45a9.68 9.68 0 013-1.33.14.14 0 01.12 0l-.43.19-.44.14a9.53 9.53 0 00-3.15 2.18A4.33 4.33 0 003 49.28a2.13 2.13 0 00.12.6c0-.18 0-.36.07-.53a4.65 4.65 0 011.11-2.24 9.45 9.45 0 012.31-2A.46.46 0 016.8 45c-.36.32-.72.64-1.07 1a8.31 8.31 0 00-1.82 2.27 2.75 2.75 0 00.55 3.64zM33.55 6.86A10.61 10.61 0 0136 9.68a16.21 16.21 0 00-1.28-1.34 14.09 14.09 0 00-1.48-1.17c-.51-.35-1-.67-1.58-1s-1.13-.55-1.71-.79A12.34 12.34 0 0136.42 8a9 9 0 012.93 4.31.29.29 0 010 .16 10.74 10.74 0 00-.76-1.42 10.86 10.86 0 00-1-1.3 12.85 12.85 0 00-1.22-1.11 14.66 14.66 0 00-1.36-1 11.12 11.12 0 00-1.46-.78zM14.88 23.31a9.25 9.25 0 003.29-2 5.45 5.45 0 00.93-1.15 5.67 5.67 0 01-2.34 1.48 10 10 0 01-2.71.59 18.3 18.3 0 002.18-.67 7.4 7.4 0 003.15-2.19 5.37 5.37 0 001.19-3.89 1.37 1.37 0 010-.35 5.88 5.88 0 01.24 1.37c.19 2.85-1.2 4.75-3.64 6a8.49 8.49 0 01-2.29.81zM15.6 16.55C13.89 18 13.18 19.91 12.52 22a3.75 3.75 0 010-1.26 7.07 7.07 0 012-3.69 15.91 15.91 0 013.89-2.93s.09-.07.15 0c-2.84 2.26-4.49 5.32-5.88 8.58 0-.18.05-.36.09-.54a4.26 4.26 0 01.15-.54 18.78 18.78 0 011.85-3.73c.23-.48.56-.89.83-1.34zM35.19 13.56a25.16 25.16 0 005.87 5.33A10.67 10.67 0 0137 16.15a6.4 6.4 0 001.91 2.13 21.31 21.31 0 002.43 1.61 11 11 0 01-3.94-2.3 7.23 7.23 0 01-2.21-4.03zM60 40.93a8.28 8.28 0 015.57 4.63 7.14 7.14 0 01.34 1.2c0 .13 0 .2-.15.2-.45 0-.44 0-.57-.42A6.55 6.55 0 0063.58 44a20.83 20.83 0 00-3.36-2.93zM56.5 33.78a10.39 10.39 0 00.58 3.54 12 12 0 01.43-5.79 20.45 20.45 0 000 4.82 38.35 38.35 0 00.77 4.74 4.26 4.26 0 01-.83-1.16 9.69 9.69 0 01-1-4.1 17.58 17.58 0 01.05-2.05zM63.89 47.72l-1.82-.14c-2.4-.17-4.8-.21-7.2-.15A58.61 58.61 0 0048 48c-.62.09-1.22.23-1.83.34-.08 0-.2.1-.23-.06s0-.25.17-.28c1.64-.3 3.29-.54 4.94-.71a53.38 53.38 0 017-.24 30.75 30.75 0 015.84.67zM50.68 6.13c5 1.66 9 4.52 11.24 9.43a26.61 26.61 0 00-1.72-2.38A23.58 23.58 0 0058.13 11a25.94 25.94 0 00-2.3-1.89 27.78 27.78 0 00-2.52-1.63c-.86-.48-1.75-.91-2.63-1.35zM74.83 63.52c0 .82-.19 1-.91.69a3.46 3.46 0 01-2.07-2.61c0-.09 0-.16.11-.14a4.68 4.68 0 012.06.63 1.61 1.61 0 01.81 1.43zM63.94 20.28A9.35 9.35 0 0070.71 28a7.83 7.83 0 01-5-2.35 7.38 7.38 0 01-1.77-5.37zM42 32.26a4 4 0 01-4.49-2.76A12.81 12.81 0 0142 32.26zM58.82 39.86a42.84 42.84 0 00-1.07-9.09 13.12 13.12 0 01.87 2.82v-1.8h.1a10.63 10.63 0 01.7 6.72v-1.77a13.22 13.22 0 00-.15-1.74 7.45 7.45 0 00-.44-1.73 29.4 29.4 0 01-.01 6.59zM63.55 25.28a16 16 0 00.91 1.49 13.26 13.26 0 004.72 3.92 22.14 22.14 0 005.5 1.85 1.72 1.72 0 01.28.08 4 4 0 01-.91-.1 17.35 17.35 0 01-6.68-2.39 8.63 8.63 0 01-3.75-4.57 2.86 2.86 0 01-.07-.28zM72.16 64.48a5.42 5.42 0 002.23.69 7.42 7.42 0 00-1 2.92.8.8 0 01-.4-.39 6.05 6.05 0 01-.69-2 8.67 8.67 0 01-.14-1.22zM18.42 23.77a15.38 15.38 0 01-7.83 5.76 49 49 0 007.83-5.76zM79.25 35.36A6.87 6.87 0 0075.78 29a5.2 5.2 0 012.3 1.08 4.26 4.26 0 011.46 3.63 7.57 7.57 0 01-.19 1.42.53.53 0 01-.1.23zM19.42 12.24a14.79 14.79 0 014.13-2.31 8.94 8.94 0 014.29-.47 8.1 8.1 0 014.07 1.87c.17.14.33.3.49.44l.22.18c-.15 0-.19 0-.24-.09a9.06 9.06 0 00-7.3-2 13.09 13.09 0 00-5.38 2.23.41.41 0 01-.28.15zM68.37 47.51h.09c.43.12.43.12.43.56v5.27a.77.77 0 01-.32.72 3 3 0 00-.32.28c.05-2.34.09-4.57.12-6.83zM32.61 19.76a53.66 53.66 0 004.57 11c-1.47-1.08-4.63-8.71-4.57-11zM24.62 21.54c0-.63.1-1.25.09-1.88a8 8 0 00-.57-3.06 4.49 4.49 0 00-3.35-2.75l-.4-.09a4.17 4.17 0 014.42 3.46 10 10 0 01-.19 4.32zM7.85 30.69a12.22 12.22 0 012.62-3.82A11.62 11.62 0 0115.13 24a19.85 19.85 0 00-7.28 6.69z" transform="translate(-.42 -.06)"/><path class="cls-1" d="M52.62 48.13a2.14 2.14 0 001 2.08 4.52 4.52 0 01-.85-.09 14.45 14.45 0 00-1.77-.18c-.19 0-.25-.09-.25-.25a1.05 1.05 0 01.4-.78 4.28 4.28 0 011.47-.78zM23.37 7.72c2.9-2.56 6.39-2.66 8.91.47-.1 0-.13-.07-.18-.11a6.42 6.42 0 00-3.54-1.74 6.93 6.93 0 00-4.23.83zM11.69 30.4c3-1.76 5.86-3.65 7.6-6.9a4.22 4.22 0 01-.5 1.36 10.33 10.33 0 01-3.14 3.34 21.79 21.79 0 01-3.86 2.16zM78.56 40.15a4.7 4.7 0 00-.56-1.37 5.23 5.23 0 00-3.26-2.09c-.45-.11-.91-.17-1.38-.25a6.53 6.53 0 013.93.72 2.83 2.83 0 011.27 2.99zM47.82 28.33a16.26 16.26 0 00-1.31-3.66 11.63 11.63 0 00-2.25-3.17c2.02 1.04 4.09 5.02 3.56 6.83zM50.68 29.56a42.61 42.61 0 011.59 7.55 26 26 0 01-1.59-7.55zM7.29 53.17c2.56-1.59 3.4-4.07 3.6-6.92.7 2.84-1.17 6.42-3.6 6.92zM69.65 29c2.77-.29 5.5 1 6.37 3.71A8.49 8.49 0 0069.65 29zM19.15 26c.59-2.74 2.1-5 3.53-7.38h.09L19.22 26zM70.16 36.8a10.58 10.58 0 011.77.31 13.54 13.54 0 014 1.56 5.11 5.11 0 011.87 1.88 2.59 2.59 0 01.14.29.55.55 0 01.06.16l-.49-.55A10.72 10.72 0 0074 38.11a25.17 25.17 0 00-3.84-1.31zM47.82 30.52a10.67 10.67 0 003 5.32c-1.89-.66-3.55-3.54-3-5.32zM19.16 15.49a8.93 8.93 0 01-4.42 5.8 21.77 21.77 0 004.42-5.8zM60.79 58.57a.19.19 0 01-.18.09 51.78 51.78 0 01-6.47.26 16 16 0 01-4.07-.56 5.45 5.45 0 01-1-.45 1.43 1.43 0 01-.39-.33 10.38 10.38 0 004.23 1 40.89 40.89 0 004.43.13c1.06 0 2.11 0 3.16-.12zM34.1 6.08c2.69.48 6.2 4 6.81 6.82a13.94 13.94 0 00-6.81-6.82z" transform="translate(-.42 -.06)"/><path class="cls-1" d="M77.85 41.71a19.37 19.37 0 00-6.58-4.11c2.63.66 5.06 1.65 6.58 4.11zM11.08 49.87a8.24 8.24 0 01-.67 1.66A6.19 6.19 0 018.19 54a5.51 5.51 0 01-3.76.72c3.32-.09 5.31-2.03 6.65-4.85zM38.74 13.82c-1.88-.88-5.11-4.3-5.49-5.82.85 1.05 1.72 2.07 2.62 3.05a30 30 0 002.87 2.77zM33.92 49.83a4.12 4.12 0 01-2 .77 2.51 2.51 0 00.84-1.74c0-.2.09-.2.25-.14A2.07 2.07 0 0134.37 50c0 .08.15.22 0 .29a.31.31 0 01-.42-.21 2.21 2.21 0 01-.03-.25zM29.32 50.41a2.52 2.52 0 01-2.2-1 .21.21 0 010-.29 2.07 2.07 0 011.07-.74c.09 0 .13 0 .14.09a3 3 0 00.06.42 2.3 2.3 0 00.93 1.52zM17.35 23.37c3-1.13 4-3.58 4.15-6.55.35.72 0 3.08-.69 4.18a5.07 5.07 0 01-3.46 2.37zM57.12 47.88c.89.19 1.13.8.62 1.57.33 0 .62-.2 1-.26a4.74 4.74 0 01-2.59 1c.61-.41.94-.9.97-2.31zM9.87 46.12a5.76 5.76 0 01.18 1.7 4.76 4.76 0 01-1 3.09 3.7 3.7 0 01-2 1.16l.12-.07a4.88 4.88 0 002.54-3.74 9.39 9.39 0 00.15-2 .81.81 0 01.01-.14zM41.28 10.12C42.44 9 46.37 8.39 47.79 9a25.77 25.77 0 00-3.31.29 12.19 12.19 0 00-3.2.83zM34.52 28a1.93 1.93 0 01-.64-.54 5.79 5.79 0 01-.92-2 17.1 17.1 0 01-.57-3.18c.15.65.32 1.3.53 1.93s.46 1.28.72 1.91.55 1.19.88 1.88zM66.85 12.86c1.53 1.33 3.15 2.52 4.76 3.74a10.8 10.8 0 01-4.76-3.74zM41.38 28.91c-1.47-.62-4.73-5.17-5.1-7.11a24.52 24.52 0 005.1 7.11z" transform="translate(-.42 -.06)"/><path class="cls-1" d="M52.7 50.54c3.51.22 3.82 0 6.45-1.07-1.31 1.32-4.15 1.82-6.45 1.07zM46 27.9a15.43 15.43 0 00-1.44-5.13A5.87 5.87 0 0146 27.9zM69.37 52.58c0-1.3.06-2.57.07-3.84 0-.23.18-.24.31-.28s.07.1.07.16V52.09c0 .4-.05.37-.45.49zM50.26 29.7a9.66 9.66 0 000 3.31 7.39 7.39 0 001.3 3 6.11 6.11 0 01-1.3-6.31zM62.35 45.68a5.07 5.07 0 00-2-3.23c-.26-.24-.54-.45-.82-.68 1.94.74 3.13 2.23 2.82 3.91zM49 35.16c-.2-.18-.41-.35-.6-.53a4.66 4.66 0 01-1.51-2.36 1.87 1.87 0 01.27-1.57A5.23 5.23 0 0049 35.12zM79 39.91c0-1.87-.19-3.66-1.81-5a1.31 1.31 0 01.67.36 3.37 3.37 0 011.14 1.9 6.18 6.18 0 010 2.74zM46.44 33.52a34.55 34.55 0 00-2.54-3.37 6.21 6.21 0 012.54 3.37zM39.91 14.79A7.79 7.79 0 0135 12.37a14.63 14.63 0 004.91 2.42zM67.08 47c1.53-.34 3-.88 4.48-1.33A8.9 8.9 0 0167.08 47z" transform="translate(-.42 -.06)"/><path class="cls-1" d="M60.9 42a4.44 4.44 0 012.68 4 6.08 6.08 0 00-2.68-4zM30.41 48.35c.48 0 .47 0 .43.5 0 .17-.06.21-.22.18L30.2 49c-.1 0-.16-.05-.18-.18-.09-.47-.1-.47.39-.47zM54.37 48.53c-.43 0-.46 0-.46-.37a.15.15 0 01.15-.17 1.73 1.73 0 01.39 0c.13 0 .33-.23.36.08s0 .48-.36.48zM61 44.93a8 8 0 00-2-2.53 4.32 4.32 0 012 2.53zM66 49.09a2.07 2.07 0 00-1.09-.88c.63.04 1.22.5 1.09.88zM66.09 52.43V50.3v2.11zM15.89 35.91a2.46 2.46 0 01.66-1.12 12.63 12.63 0 00-.66 1.12zM65.29 69.33a1.65 1.65 0 01-.39.51 1.39 1.39 0 01.39-.51zM66.09 52.69v.58a1.26 1.26 0 010-.58zM32.91 42.11a1.1 1.1 0 01.46.28 1.16 1.16 0 01-.48-.27zM15.19 52.53l-.19-.32a.36.36 0 01.19.32z" transform="translate(-.42 -.06)"/><path d="M42.41 77.73a14.83 14.83 0 01-8.65-2.79c-.3-.22-.54-.51-.82-.76a3.23 3.23 0 00-1.75-1 1.94 1.94 0 01-.75-.33c-.14-.09-.15-.18 0-.29a1.64 1.64 0 01.76-.34 14.51 14.51 0 012.28-.11 12.93 12.93 0 002.52-.24c.51-.13 1-.33 1.49-.48a5 5 0 013.44.33 2.77 2.77 0 002.62-.12 4.38 4.38 0 012.14-.53 9.59 9.59 0 013.14.49 6.56 6.56 0 002.72.23 5.92 5.92 0 012.33.13 2.76 2.76 0 01.72.33c.19.13.19.22 0 .36a1.07 1.07 0 01-.46.21 3.28 3.28 0 00-1.25.55A8.92 8.92 0 0051.1 75a7.32 7.32 0 01-3.65 2.17 12.64 12.64 0 01-3.82.53c-.45-.04-.9.07-1.22.03zM21.85 50.17l-.19-.31.57 1.4-.71-1.13 1 2.11-.81-1.26h-.05l1 1.88-.93-1.4h-.05l.95 2-1.13-1.06h-.05l.5.83h-.05l-1-1.21.6 1.15-.56-.88h-.06l.4 1h-.05c-.16-.29-.32-.6-.5-.89-.07-.12-.15-.34-.25-.29s0 .27 0 .41a12.87 12.87 0 00.73 1.55 2.78 2.78 0 01-1-1.21 1.79 1.79 0 00.28.84c.15.27.35.51.52.76a3.86 3.86 0 01-1.27-2.1 3 3 0 00-.11 1.44c.06.72.19 1.42.32 2.13a5.24 5.24 0 01-.39-1.39 26.75 26.75 0 01-.36-4.37.42.42 0 01.15-.35 3.24 3.24 0 012.14-.79c.08 0 .15 0 .17.09.08.31.16.61.23.91zM48.93 49c-.16.17-.38.27-.48.49a5.1 5.1 0 01.81-.48c-1.42 1.42-1.64 2.1-1.22 3.6-.33-.31-.55-1 0-2.26a3.36 3.36 0 00-.47 2.65 1.75 1.75 0 01-.25-.81c0-.3-.07-.6-.08-.9a4.78 4.78 0 00.94 3.86 6.36 6.36 0 01-.5-.53l.27.63a9.07 9.07 0 01-1.57-3.34 2.43 2.43 0 01.47-2.23 2.84 2.84 0 011.87-.86 3.15 3.15 0 00-.76.74 5.67 5.67 0 01.97-.56zM59.06 6.88a16.6 16.6 0 016.3 10.56c-1.69-3.77-3.42-7.51-6.3-10.56zM67.21 33.17a1.05 1.05 0 01.44.24 1 1 0 01-.43-.24zM13.22 30.94c-1.39.77-2.75 1.58-4.14 2.35a14 14 0 014.14-2.35z" transform="translate(-.42 -.06)"/><path class="cls-1" d="M37.32 74.8a1.29 1.29 0 00-.46.53c-.21-.41 0-.68.6-1a1 1 0 00-1.07.92c-.35-.26-.23-.58.42-1.13a1.31 1.31 0 00-1.09.8c-.16-.42.15-.58.4-.81a.77.77 0 00-.74.17.67.67 0 01.41-.39 1.86 1.86 0 01.9-.18l4.12.16c2.09.07 4.18 0 6.27-.09.53 0 1.06 0 1.59-.12a.26.26 0 01.33.21 1.82 1.82 0 01-.12 1.66 2.13 2.13 0 00-.17-1.24 1.87 1.87 0 01-1.25 1.94c.79-.81.84-1.21.24-1.75-.07 0 0 .09 0 .13a1.34 1.34 0 01-.42 1.42 3.78 3.78 0 01-1.8.81 12.85 12.85 0 01-4.15.2 11.85 11.85 0 01-3-.61 4 4 0 01-.72-.35c-.61-.34-.61-.67-.29-1.28z" transform="translate(-.42 -.06)"/></g></g></svg>